<svg width="48" height="48" viewBox="0 0 48 48" fill="none" xmlns="http://www.w3.org/2000/svg" xmlns:xlink="http://www.w3.org/1999/xlink">
<path d="M14,12L14,13.5C14.502,13.5 14.97,13.249 15.248,12.832L14,12ZM16.813,7.781L15.564,6.949L15.564,6.949L16.813,7.781ZM31.187,7.781L32.436,6.949L31.187,7.781ZM34,12L32.752,12.832C33.03,13.249 33.498,13.5 34,13.5L34,12ZM28.5,27C28.5,29.485 26.485,31.5 24,31.5L24,34.5C28.142,34.5 31.5,31.142 31.5,27L28.5,27ZM24,31.5C21.515,31.5 19.5,29.485 19.5,27L16.5,27C16.5,31.142 19.858,34.5 24,34.5L24,31.5ZM19.5,27C19.5,24.515 21.515,22.5 24,22.5L24,19.5C19.858,19.5 16.5,22.858 16.5,27L19.5,27ZM24,22.5C26.485,22.5 28.5,24.515 28.5,27L31.5,27C31.5,22.858 28.142,19.5 24,19.5L24,22.5ZM15.248,12.832L18.061,8.613L15.564,6.949L12.752,11.168L15.248,12.832ZM20.141,7.5L27.859,7.5L27.859,4.5L20.141,4.5L20.141,7.5ZM29.939,8.613L32.752,12.832L35.248,11.168L32.436,6.949L29.939,8.613ZM27.859,7.5C28.695,7.5 29.476,7.918 29.939,8.613L32.436,6.949C31.415,5.419 29.698,4.5 27.859,4.5L27.859,7.5ZM18.061,8.613C18.524,7.918 19.305,7.5 20.141,7.5L20.141,4.5C18.302,4.5 16.585,5.419 15.564,6.949L18.061,8.613ZM42.5,20L42.5,34L45.5,34L45.5,20L42.5,20ZM36,40.5L12,40.5L12,43.5L36,43.5L36,40.5ZM5.5,34L5.5,20L2.5,20L2.5,34L5.5,34ZM12,40.5C8.41,40.5 5.5,37.59 5.5,34L2.5,34C2.5,39.247 6.753,43.5 12,43.5L12,40.5ZM42.5,34C42.5,37.59 39.59,40.5 36,40.5L36,43.5C41.247,43.5 45.5,39.247 45.5,34L42.5,34ZM36,13.5C39.59,13.5 42.5,16.41 42.5,20L45.5,20C45.5,14.753 41.247,10.5 36,10.5L36,13.5ZM12,10.5C6.753,10.5 2.5,14.753 2.5,20L5.5,20C5.5,16.41 8.41,13.5 12,13.5L12,10.5ZM12,13.5L14,13.5L14,10.5L12,10.5L12,13.5ZM36,10.5L34,10.5L34,13.5L36,13.5L36,10.5Z" fill="#797C7B" fill-opacity="0.5"/>
<circle cx="24" cy="12" r="2" fill="#797C7B" fill-opacity="0.5"/>
</svg>
