<svg width="44" height="44" viewBox="0 0 44 44" fill="none" xmlns="http://www.w3.org/2000/svg" xmlns:xlink="http://www.w3.org/1999/xlink">
<path d="M12.994,3.374C13.753,3.042 14.1,2.158 13.768,1.399C13.436,0.64 12.551,0.294 11.792,0.626C7.279,2.599 3.449,5.84 0.751,9.898C0.292,10.588 0.48,11.519 1.17,11.978C1.86,12.436 2.791,12.249 3.249,11.559C5.632,7.976 9.014,5.115 12.994,3.374ZM32.208,0.626C31.449,0.294 30.565,0.64 30.233,1.399C29.901,2.158 30.247,3.042 31.006,3.374C34.987,5.115 38.369,7.976 40.751,11.559C41.21,12.249 42.141,12.436 42.831,11.978C43.521,11.519 43.708,10.588 43.249,9.898C40.551,5.84 36.721,2.599 32.208,0.626ZM36.899,35.793C39.467,32.553 41,28.455 41,24C41,13.507 32.494,5 22,5C11.507,5 3,13.507 3,24C3,28.455 4.534,32.553 7.102,35.792L2.835,41.056C2.313,41.699 2.412,42.644 3.055,43.165C3.699,43.687 4.644,43.588 5.165,42.945L9.166,38.01C12.547,41.109 17.052,43 22,43C26.948,43 31.454,41.109 34.834,38.01L38.835,42.945C39.357,43.588 40.301,43.687 40.945,43.165C41.588,42.644 41.687,41.699 41.165,41.056L36.899,35.793ZM22,12.5C22.828,12.5 23.5,13.172 23.5,14L23.5,23.197L28.832,26.752C29.521,27.212 29.708,28.143 29.248,28.832C28.789,29.521 27.857,29.708 27.168,29.248L21.168,25.248C20.751,24.97 20.5,24.502 20.5,24L20.5,14C20.5,13.172 21.172,12.5 22,12.5Z" clip-rule="evenodd" fill-rule="evenodd" fill="#FFFFFF"/>
</svg>
