<svg width="18" height="18" viewBox="0 0 18 18" fill="none" xmlns="http://www.w3.org/2000/svg" xmlns:xlink="http://www.w3.org/1999/xlink">
<path d="M8,8L8,6.5C7.172,6.5 6.5,7.172 6.5,8L8,8ZM16,8L17.5,8C17.5,7.172 16.828,6.5 16,6.5L16,8ZM16,16L16,17.5C16.828,17.5 17.5,16.828 17.5,16L16,16ZM8,16L6.5,16C6.5,16.828 7.172,17.5 8,17.5L8,16ZM8,9.5L16,9.5L16,6.5L8,6.5L8,9.5ZM14.5,8L14.5,16L17.5,16L17.5,8L14.5,8ZM16,14.5L8,14.5L8,17.5L16,17.5L16,14.5ZM9.5,16L9.5,8L6.5,8L6.5,16L9.5,16Z" fill="#3D4A7A"/>
<path d="M11.956,2.5C12.784,2.5 13.456,1.828 13.456,1C13.456,0.172 12.784,-0.5 11.956,-0.5L11.956,2.5ZM-0.5,11.956C-0.5,12.784 0.172,13.456 1,13.456C1.828,13.456 2.5,12.784 2.5,11.956L-0.5,11.956ZM11.956,-0.5L5,-0.5L5,2.5L11.956,2.5L11.956,-0.5ZM5,-0.5C1.962,-0.5 -0.5,1.962 -0.5,5L2.5,5C2.5,3.618 3.618,2.5 5,2.5L5,-0.5ZM-0.5,5L-0.5,11.956L2.5,11.956L2.5,5L-0.5,5Z" fill="#3D4A7A"/>
</svg>
