<svg width="40" height="18" viewBox="0 0 40 18" fill="none" xmlns="http://www.w3.org/2000/svg" xmlns:xlink="http://www.w3.org/1999/xlink">
<path d="M28.5,9C28.5,10.059 27.603,11.421 25.229,12.608C22.944,13.75 19.684,14.5 16,14.5L16,17.5C20.048,17.5 23.788,16.683 26.57,15.291C29.263,13.945 31.5,11.807 31.5,9L28.5,9ZM16,14.5C12.316,14.5 9.056,13.75 6.771,12.608C4.397,11.421 3.5,10.059 3.5,9L0.5,9C0.5,11.807 2.737,13.945 5.43,15.291C8.212,16.683 11.952,17.5 16,17.5L16,14.5ZM3.5,9C3.5,7.941 4.397,6.579 6.771,5.392C9.056,4.25 12.316,3.5 16,3.5L16,0.5C11.952,0.5 8.212,1.317 5.43,2.709C2.737,4.055 0.5,6.193 0.5,9L3.5,9ZM16,3.5C19.684,3.5 22.944,4.25 25.229,5.392C27.603,6.579 28.5,7.941 28.5,9L31.5,9C31.5,6.193 29.263,4.055 26.57,2.709C23.788,1.317 20.048,0.5 16,0.5L16,3.5Z" fill="#0E1A4B"/>
<path d="M33.999,9.113C33.979,10.341 33.63,11.521 33.002,12.622C33.739,12.419 34.429,12.184 35.062,11.92C36.257,11.423 37.321,10.792 38.11,10.015C38.904,9.233 39.5,8.213 39.5,7C39.5,5.787 38.904,4.767 38.11,3.985C37.321,3.208 36.257,2.577 35.062,2.08C33.017,1.228 30.381,0.679 27.499,0.537C29.503,1.555 31.14,2.834 32.27,4.289C32.866,4.455 33.414,4.643 33.909,4.849C34.886,5.256 35.579,5.703 36.005,6.122C36.425,6.537 36.5,6.832 36.5,7C36.5,7.168 36.425,7.464 36.005,7.878C35.592,8.284 34.929,8.716 33.999,9.113Z" clip-rule="evenodd" fill-rule="evenodd" fill="#0E1A4B"/>
</svg>
