<svg width="120" height="118" viewBox="0 0 120 118" fill="none" xmlns="http://www.w3.org/2000/svg" xmlns:xlink="http://www.w3.org/1999/xlink">
<path d="M104.687,19.17C104.252,18.67 103.494,18.617 102.994,19.052C102.493,19.486 102.44,20.244 102.875,20.745L104.687,19.17ZM102.938,95.183C102.504,95.684 102.559,96.441 103.06,96.875C103.561,97.309 104.319,97.255 104.753,96.754L102.938,95.183ZM102.875,20.745C111.844,31.066 116.788,44.277 116.8,57.952L119.2,57.95C119.188,43.698 114.035,29.928 104.687,19.17L102.875,20.745ZM116.8,57.952C116.812,71.626 111.89,84.845 102.938,95.183L104.753,96.754C114.082,85.98 119.212,72.202 119.2,57.95L116.8,57.952Z" fill="#4E5255"/>
<path d="M98.812,102.702C99.313,102.267 99.366,101.509 98.932,101.009C98.497,100.508 97.739,100.455 97.239,100.889L98.812,102.702ZM60.027,116L60.026,114.8L60.027,116ZM22.801,100.924C22.3,100.49 21.542,100.544 21.108,101.045C20.674,101.546 20.728,102.304 21.229,102.738L22.801,100.924ZM97.239,100.889C86.914,109.854 73.701,114.794 60.026,114.8L60.027,117.2C74.279,117.193 88.051,112.046 98.812,102.702L97.239,100.889ZM60.026,114.8C46.352,114.806 33.135,109.879 22.801,100.924L21.229,102.738C31.999,112.071 45.775,117.207 60.027,117.2L60.026,114.8Z" fill="#4E5255"/>
<path d="M15.378,96.904C15.813,97.403 16.571,97.455 17.071,97.019C17.57,96.584 17.622,95.826 17.187,95.326L15.378,96.904ZM2,57.84L0.8,57.837L2,57.84ZM17.393,20.438C17.832,19.941 17.784,19.182 17.287,18.744C16.79,18.306 16.031,18.354 15.593,18.851L17.393,20.438ZM17.187,95.326C8.133,84.942 3.162,71.62 3.2,57.843L0.8,57.837C0.761,72.196 5.941,86.08 15.378,96.904L17.187,95.326ZM3.2,57.843C3.238,44.066 8.282,30.772 17.393,20.438L15.593,18.851C6.097,29.622 0.84,43.477 0.8,57.837L3.2,57.843Z" fill="#4E5255"/>
</svg>
