<svg width="42" height="44" viewBox="0 0 42 44" fill="none" xmlns="http://www.w3.org/2000/svg" xmlns:xlink="http://www.w3.org/1999/xlink">
<path d="M37.006,31.525L35.698,30.79C35.511,31.124 35.458,31.517 35.551,31.888L37.006,31.525ZM29.525,39.006L29.888,37.551C29.517,37.458 29.124,37.511 28.79,37.698L29.525,39.006ZM39.5,41.5L39.136,42.955C39.647,43.083 40.188,42.933 40.561,42.561C40.933,42.188 41.083,41.647 40.955,41.136L39.5,41.5ZM38.314,32.259C40.017,29.227 41,25.729 41,22L38,22C38,25.195 37.159,28.189 35.698,30.79L38.314,32.259ZM41,22C41,10.401 31.599,1 20,1L20,4C29.942,4 38,12.058 38,22L41,22ZM20,1C8.401,1 -1,10.401 -1,22L2,22C2,12.058 10.058,4 20,4L20,1ZM-1,22C-1,33.599 8.401,43 20,43L20,40C10.058,40 2,31.942 2,22L-1,22ZM20,43C23.729,43 27.227,42.017 30.259,40.314L28.79,37.698C26.189,39.159 23.195,40 20,40L20,43ZM29.161,40.461L39.136,42.955L39.864,40.045L29.888,37.551L29.161,40.461ZM40.955,41.136L38.461,31.161L35.551,31.888L38.045,41.864L40.955,41.136Z" fill="#FFFFFF"/>
<path d="M18.555,21.639C17.97,22.225 17.97,23.175 18.555,23.76C19.141,24.346 20.091,24.346 20.677,23.76L18.555,21.639ZM19.616,23.467L18.55,24.522L18.555,24.527L19.616,23.467ZM20.682,23.755C21.265,23.166 21.26,22.217 20.671,21.634C20.082,21.051 19.133,21.056 18.55,21.645L20.682,23.755ZM20.677,23.76C20.303,24.134 19.696,24.134 19.322,23.76L21.444,21.639C20.646,20.841 19.353,20.841 18.555,21.639L20.677,23.76ZM19.322,23.76C18.949,23.387 18.949,22.78 19.322,22.406L21.444,24.527C22.242,23.729 22.242,22.437 21.444,21.639L19.322,23.76ZM19.322,22.406C19.696,22.033 20.303,22.033 20.677,22.406L18.555,24.527C19.353,25.326 20.646,25.326 21.444,24.527L19.322,22.406ZM20.682,22.412C21.05,22.784 21.05,23.383 20.682,23.755L18.55,21.645C17.761,22.441 17.761,23.725 18.55,24.522L20.682,22.412Z" fill="#FFFFFF"/>
<path d="M9.889,21.639C9.304,22.225 9.304,23.175 9.889,23.76C10.475,24.346 11.425,24.346 12.011,23.76L9.889,21.639ZM10.95,23.467L9.884,24.522L9.889,24.527L10.95,23.467ZM12.016,23.755C12.599,23.166 12.594,22.217 12.005,21.634C11.416,21.051 10.467,21.056 9.884,21.645L12.016,23.755ZM12.011,23.76C11.637,24.134 11.03,24.134 10.656,23.76L12.778,21.639C11.98,20.841 10.687,20.841 9.889,21.639L12.011,23.76ZM10.656,23.76C10.283,23.387 10.283,22.78 10.656,22.406L12.778,24.527C13.576,23.729 13.576,22.437 12.778,21.639L10.656,23.76ZM10.656,22.406C11.03,22.033 11.637,22.033 12.011,22.406L9.889,24.527C10.687,25.326 11.98,25.326 12.778,24.527L10.656,22.406ZM12.016,22.412C12.384,22.784 12.384,23.383 12.016,23.755L9.884,21.645C9.095,22.441 9.095,23.725 9.884,24.522L12.016,22.412Z" fill="#FFFFFF"/>
<path d="M27.222,21.639C26.637,22.225 26.637,23.175 27.222,23.76C27.808,24.346 28.758,24.346 29.344,23.76L27.222,21.639ZM28.283,23.467L27.217,24.522L27.222,24.527L28.283,23.467ZM29.349,23.755C29.932,23.166 29.927,22.217 29.338,21.634C28.749,21.051 27.8,21.056 27.217,21.645L29.349,23.755ZM29.344,23.76C28.97,24.134 28.363,24.134 27.989,23.76L30.111,21.639C29.313,20.841 28.02,20.841 27.222,21.639L29.344,23.76ZM27.989,23.76C27.616,23.387 27.616,22.78 27.989,22.406L30.111,24.527C30.909,23.729 30.909,22.437 30.111,21.639L27.989,23.76ZM27.989,22.406C28.363,22.033 28.97,22.033 29.344,22.406L27.222,24.527C28.02,25.326 29.313,25.326 30.111,24.527L27.989,22.406ZM29.349,22.412C29.717,22.784 29.717,23.383 29.349,23.755L27.217,21.645C26.428,22.441 26.428,23.725 27.217,24.522L29.349,22.412Z" fill="#FFFFFF"/>
</svg>
