<svg width="16" height="16" viewBox="0 0 16 16" fill="none" xmlns="http://www.w3.org/2000/svg" xmlns:xlink="http://www.w3.org/1999/xlink">
<path d="M7.131,4.869C6.546,4.283 5.596,4.283 5.01,4.869C4.424,5.454 4.424,6.404 5.01,6.99L7.131,4.869ZM5.01,6.99C5.596,7.576 6.546,7.576 7.131,6.99C7.717,6.404 7.717,5.454 7.131,4.869L5.01,6.99ZM5.01,6.99C4.463,6.443 4.463,5.557 5.01,5.01L7.131,7.131C7.756,6.506 7.756,5.493 7.131,4.869L5.01,6.99ZM5.01,5.01C5.557,4.463 6.443,4.463 6.99,5.01L4.869,7.131C5.493,7.756 6.507,7.756 7.131,7.131L5.01,5.01ZM6.99,5.01C7.537,5.557 7.537,6.443 6.99,6.99L4.869,4.869C4.244,5.493 4.244,6.506 4.869,7.131L6.99,5.01ZM6.99,6.99C6.443,7.537 5.557,7.537 5.01,6.99L7.131,4.869C6.507,4.244 5.493,4.244 4.869,4.869L6.99,6.99Z" fill="#3D4A7A"/>
<path d="M2.044,11.5C1.216,11.5 0.544,12.172 0.544,13C0.544,13.828 1.216,14.5 2.044,14.5L2.044,11.5ZM14.5,2.044C14.5,1.216 13.828,0.544 13,0.544C12.172,0.544 11.5,1.216 11.5,2.044L14.5,2.044ZM2.044,14.5L9,14.5L9,11.5L2.044,11.5L2.044,14.5ZM9,14.5C12.038,14.5 14.5,12.038 14.5,9L11.5,9C11.5,10.382 10.382,11.5 9,11.5L9,14.5ZM14.5,9L14.5,2.044L11.5,2.044L11.5,9L14.5,9Z" fill="#3D4A7A"/>
</svg>
