<svg width="18" height="20" viewBox="0 0 18 20" fill="none" xmlns="http://www.w3.org/2000/svg" xmlns:xlink="http://www.w3.org/1999/xlink">
<path d="M8,2L8,0.5C7.172,0.5 6.5,1.172 6.5,2L8,2ZM16,2L17.5,2C17.5,1.172 16.828,0.5 16,0.5L16,2ZM16,10L16,11.5C16.828,11.5 17.5,10.828 17.5,10L16,10ZM8,10L6.5,10C6.5,10.828 7.172,11.5 8,11.5L8,10ZM8,3.5L16,3.5L16,0.5L8,0.5L8,3.5ZM14.5,2L14.5,10L17.5,10L17.5,2L14.5,2ZM16,8.5L8,8.5L8,11.5L16,11.5L16,8.5ZM9.5,10L9.5,2L6.5,2L6.5,10L9.5,10Z" fill="#3D4A7A"/>
<path d="M2.5,6.044C2.5,5.216 1.828,4.544 1,4.544C0.172,4.544 -0.5,5.216 -0.5,6.044L2.5,6.044ZM11.956,18.5C12.784,18.5 13.456,17.828 13.456,17C13.456,16.172 12.784,15.5 11.956,15.5L11.956,18.5ZM-0.5,6.044L-0.5,13L2.5,13L2.5,6.044L-0.5,6.044ZM-0.5,13C-0.5,16.038 1.962,18.5 5,18.5L5,15.5C3.618,15.5 2.5,14.382 2.5,13L-0.5,13ZM5,18.5L11.956,18.5L11.956,15.5L5,15.5L5,18.5Z" fill="#3D4A7A"/>
</svg>
