<svg width="42" height="42" viewBox="0 0 42 42" fill="none" xmlns="http://www.w3.org/2000/svg" xmlns:xlink="http://www.w3.org/1999/xlink">
<path d="M37.006,29.525L35.698,28.79C35.511,29.124 35.458,29.517 35.551,29.888L37.006,29.525ZM29.525,37.006L29.888,35.551C29.517,35.458 29.124,35.511 28.79,35.698L29.525,37.006ZM39.5,39.5L39.136,40.955C39.647,41.083 40.188,40.933 40.561,40.561C40.933,40.188 41.083,39.647 40.955,39.136L39.5,39.5ZM38.314,30.259C40.017,27.227 41,23.729 41,20L38,20C38,23.195 37.159,26.189 35.698,28.79L38.314,30.259ZM41,20C41,8.401 31.599,-1 20,-1L20,2C29.942,2 38,10.058 38,20L41,20ZM20,-1C8.401,-1 -1,8.401 -1,20L2,20C2,10.058 10.058,2 20,2L20,-1ZM-1,20C-1,31.599 8.401,41 20,41L20,38C10.058,38 2,29.942 2,20L-1,20ZM20,41C23.729,41 27.227,40.017 30.259,38.314L28.79,35.698C26.189,37.159 23.195,38 20,38L20,41ZM29.161,38.461L39.136,40.955L39.864,38.045L29.888,35.551L29.161,38.461ZM40.955,39.136L38.461,29.161L35.551,29.888L38.045,39.864L40.955,39.136Z" fill="#797C7B" fill-opacity="0.39"/>
<path d="M18.555,19.639C17.97,20.225 17.97,21.175 18.555,21.76C19.141,22.346 20.091,22.346 20.677,21.76L18.555,19.639ZM19.616,21.467L18.55,22.522L18.555,22.528L19.616,21.467ZM20.682,21.755C21.265,21.166 21.26,20.217 20.671,19.634C20.082,19.051 19.133,19.056 18.55,19.645L20.682,21.755ZM20.677,21.76C20.303,22.134 19.696,22.134 19.322,21.76L21.444,19.639C20.646,18.841 19.353,18.841 18.555,19.639L20.677,21.76ZM19.322,21.76C18.949,21.387 18.949,20.78 19.322,20.406L21.444,22.528C22.242,21.729 22.242,20.437 21.444,19.639L19.322,21.76ZM19.322,20.406C19.696,20.033 20.303,20.033 20.677,20.406L18.555,22.528C19.353,23.326 20.646,23.326 21.444,22.528L19.322,20.406ZM20.682,20.412C21.05,20.784 21.05,21.383 20.682,21.755L18.55,19.645C17.761,20.441 17.761,21.725 18.55,22.522L20.682,20.412Z" fill="#797C7B" fill-opacity="0.39"/>
<path d="M9.889,19.639C9.304,20.225 9.304,21.175 9.889,21.76C10.475,22.346 11.425,22.346 12.011,21.76L9.889,19.639ZM10.95,21.467L9.884,22.522L9.889,22.528L10.95,21.467ZM12.016,21.755C12.599,21.166 12.594,20.217 12.005,19.634C11.416,19.051 10.467,19.056 9.884,19.645L12.016,21.755ZM12.011,21.76C11.637,22.134 11.03,22.134 10.656,21.76L12.778,19.639C11.98,18.841 10.687,18.841 9.889,19.639L12.011,21.76ZM10.656,21.76C10.283,21.387 10.283,20.78 10.656,20.406L12.778,22.528C13.576,21.729 13.576,20.437 12.778,19.639L10.656,21.76ZM10.656,20.406C11.03,20.033 11.637,20.033 12.011,20.406L9.889,22.528C10.687,23.326 11.98,23.326 12.778,22.528L10.656,20.406ZM12.016,20.412C12.384,20.784 12.384,21.383 12.016,21.755L9.884,19.645C9.095,20.441 9.095,21.725 9.884,22.522L12.016,20.412Z" fill="#797C7B" fill-opacity="0.39"/>
<path d="M27.222,19.639C26.637,20.225 26.637,21.175 27.222,21.76C27.808,22.346 28.758,22.346 29.344,21.76L27.222,19.639ZM28.283,21.467L27.217,22.522L27.222,22.528L28.283,21.467ZM29.349,21.755C29.932,21.166 29.927,20.217 29.338,19.634C28.749,19.051 27.8,19.056 27.217,19.645L29.349,21.755ZM29.344,21.76C28.97,22.134 28.363,22.134 27.989,21.76L30.111,19.639C29.313,18.841 28.02,18.841 27.222,19.639L29.344,21.76ZM27.989,21.76C27.616,21.387 27.616,20.78 27.989,20.406L30.111,22.528C30.909,21.729 30.909,20.437 30.111,19.639L27.989,21.76ZM27.989,20.406C28.363,20.033 28.97,20.033 29.344,20.406L27.222,22.528C28.02,23.326 29.313,23.326 30.111,22.528L27.989,20.406ZM29.349,20.412C29.717,20.784 29.717,21.383 29.349,21.755L27.217,19.645C26.428,20.441 26.428,21.725 27.217,22.522L29.349,20.412Z" fill="#797C7B" fill-opacity="0.39"/>
</svg>
