<svg width="104" height="104" viewBox="0 0 104 104" fill="none" xmlns="http://www.w3.org/2000/svg" xmlns:xlink="http://www.w3.org/1999/xlink">
<path d="M104,52C104,45.171 102.655,38.409 100.042,32.1C97.428,25.792 93.598,20.059 88.77,15.23C83.941,10.402 78.208,6.572 71.9,3.958C65.591,1.345 58.829,0 52,0L52,52L104,52Z" fill="url(#pattern_0_3_2501)" stroke="#FFFFFF" stroke-width="0.3" stroke-miterlimit="3.999327"/>
<path d="M52,104C58.829,104 65.591,102.655 71.9,100.042C78.208,97.428 83.941,93.598 88.77,88.77C93.598,83.941 97.428,78.208 100.042,71.9C102.655,65.591 104,58.829 104,52L52,52L52,104Z" fill="url(#pattern_0_3_2502)" stroke="#FFFFFF" stroke-width="0.3" stroke-miterlimit="3.999327"/>
<path d="M52,0C38.209,0 24.982,5.479 15.23,15.23C5.479,24.982 0,38.209 0,52C0,65.791 5.479,79.018 15.23,88.77C24.982,98.521 38.209,104 52,104L52,52L52,0Z" fill="url(#pattern_0_3_2503)" stroke="#FFFFFF" stroke-width="0.3" stroke-miterlimit="3.999327"/>
</svg>
