<svg width="20" height="18" viewBox="0 0 20 18" fill="none" xmlns="http://www.w3.org/2000/svg" xmlns:xlink="http://www.w3.org/1999/xlink">
<path d="M2,8L2,6.5C1.172,6.5 0.5,7.172 0.5,8L2,8ZM10,8L11.5,8C11.5,7.172 10.828,6.5 10,6.5L10,8ZM10,16L10,17.5C10.828,17.5 11.5,16.828 11.5,16L10,16ZM2,16L0.5,16C0.5,16.828 1.172,17.5 2,17.5L2,16ZM2,9.5L10,9.5L10,6.5L2,6.5L2,9.5ZM8.5,8L8.5,16L11.5,16L11.5,8L8.5,8ZM10,14.5L2,14.5L2,17.5L10,17.5L10,14.5ZM3.5,16L3.5,8L0.5,8L0.5,16L3.5,16Z" transform="rotate(-360 6 12)" fill="#3D4A7A"/>
<path d="M15.5,11.956C15.5,12.784 16.172,13.456 17,13.456C17.828,13.456 18.5,12.784 18.5,11.956L15.5,11.956ZM6.044,-0.5C5.216,-0.5 4.544,0.172 4.544,1C4.544,1.828 5.216,2.5 6.044,2.5L6.044,-0.5ZM18.5,11.956L18.5,5L15.5,5L15.5,11.956L18.5,11.956ZM18.5,5C18.5,1.962 16.038,-0.5 13,-0.5L13,2.5C14.382,2.5 15.5,3.618 15.5,5L18.5,5ZM13,-0.5L6.044,-0.5L6.044,2.5L13,2.5L13,-0.5Z" fill="#3D4A7A"/>
</svg>
