<svg width="32" height="24" viewBox="0 0 32 24" fill="none" xmlns="http://www.w3.org/2000/svg" xmlns:xlink="http://www.w3.org/1999/xlink">
<path d="M15.334,5.229C19.784,5.229 24.063,6.938 27.288,10.001C27.53,10.237 27.919,10.234 28.158,9.994L30.479,7.653C30.6,7.532 30.668,7.367 30.667,7.195C30.666,7.023 30.596,6.859 30.474,6.738C22.01,-1.366 8.657,-1.366 0.193,6.738C0.071,6.859 0.001,7.023 0,7.195C-0.001,7.366 0.066,7.531 0.187,7.653L2.509,9.994C2.748,10.235 3.137,10.238 3.379,10.001C6.604,6.937 10.884,5.229 15.334,5.229ZM19.79,18.431C19.914,18.309 19.982,18.142 19.979,17.968C19.975,17.795 19.9,17.63 19.771,17.514C17.21,15.349 13.459,15.349 10.897,17.514C10.768,17.63 10.693,17.795 10.69,17.968C10.686,18.142 10.754,18.309 10.878,18.431L14.889,22.475C15.007,22.594 15.167,22.661 15.334,22.661C15.502,22.661 15.662,22.594 15.779,22.475L19.79,18.431ZM21.948,15.393C20.136,13.753 17.779,12.845 15.334,12.846C12.891,12.847 10.535,13.754 8.724,15.393C8.479,15.626 8.093,15.621 7.854,15.382L5.536,13.041C5.414,12.918 5.346,12.752 5.348,12.579C5.349,12.406 5.42,12.24 5.545,12.12C11.063,6.991 19.609,6.991 25.128,12.12C25.252,12.24 25.323,12.405 25.325,12.579C25.327,12.752 25.259,12.918 25.137,13.041L22.818,15.382C22.579,15.621 22.193,15.626 21.948,15.393Z" clip-rule="evenodd" fill-rule="evenodd" fill="#000000"/>
</svg>
