<svg width="32" height="24" viewBox="0 0 32 24" fill="none" xmlns="http://www.w3.org/2000/svg" xmlns:xlink="http://www.w3.org/1999/xlink">
<path d="M15.334,5.23C19.784,5.23 24.063,6.939 27.288,10.002C27.53,10.238 27.919,10.235 28.158,9.995L30.479,7.654C30.6,7.533 30.668,7.367 30.667,7.196C30.666,7.024 30.596,6.86 30.474,6.739C22.01,-1.365 8.657,-1.365 0.193,6.739C0.071,6.86 0.001,7.024 0,7.196C-0.001,7.367 0.066,7.532 0.187,7.654L2.509,9.995C2.748,10.236 3.137,10.239 3.379,10.002C6.604,6.938 10.884,5.23 15.334,5.23ZM19.79,18.431C19.914,18.31 19.982,18.142 19.979,17.969C19.975,17.795 19.9,17.631 19.771,17.515C17.21,15.35 13.459,15.35 10.897,17.515C10.768,17.631 10.693,17.795 10.69,17.969C10.686,18.142 10.754,18.31 10.878,18.431L14.889,22.475C15.007,22.594 15.167,22.661 15.334,22.661C15.502,22.661 15.662,22.594 15.779,22.475L19.79,18.431ZM21.948,15.393C20.136,13.753 17.779,12.845 15.334,12.845C12.891,12.846 10.535,13.754 8.725,15.393C8.479,15.625 8.093,15.62 7.854,15.381L5.537,13.041C5.414,12.918 5.346,12.751 5.348,12.578C5.349,12.405 5.421,12.24 5.545,12.12C11.064,6.991 19.609,6.991 25.128,12.12C25.252,12.24 25.323,12.405 25.325,12.578C25.327,12.751 25.259,12.918 25.137,13.041L22.819,15.381C22.58,15.62 22.194,15.625 21.948,15.393Z" clip-rule="evenodd" fill-rule="evenodd" fill="#000000"/>
</svg>
