<svg width="34" height="22" viewBox="0 0 34 22" fill="none" xmlns="http://www.w3.org/2000/svg" xmlns:xlink="http://www.w3.org/1999/xlink">
<path d="M32,-0.664L30,-0.664C28.895,-0.664 28,0.231 28,1.336L28,18.669C28,19.774 28.895,20.669 30,20.669L32,20.669C33.105,20.669 34,19.774 34,18.669L34,1.336C34,0.231 33.105,-0.664 32,-0.664ZM20.666,4L22.666,4C23.771,4 24.666,4.895 24.666,6L24.666,18.667C24.666,19.771 23.771,20.667 22.666,20.667L20.666,20.667C19.561,20.667 18.666,19.771 18.666,18.667L18.666,6C18.666,4.895 19.561,4 20.666,4ZM13.334,8.672L11.334,8.672C10.229,8.672 9.334,9.567 9.334,10.672L9.334,18.672C9.334,19.777 10.229,20.672 11.334,20.672L13.334,20.672C14.439,20.672 15.334,19.777 15.334,18.672L15.334,10.672C15.334,9.567 14.439,8.672 13.334,8.672ZM4,12.672L2,12.672C0.895,12.672 0,13.567 0,14.672L0,18.672C0,19.777 0.895,20.672 2,20.672L4,20.672C5.105,20.672 6,19.777 6,18.672L6,14.672C6,13.567 5.105,12.672 4,12.672Z" clip-rule="evenodd" fill-rule="evenodd" fill="#000000"/>
</svg>
