<svg width="48" height="48" viewBox="0 0 48 48" fill="none" xmlns="http://www.w3.org/2000/svg" xmlns:xlink="http://www.w3.org/1999/xlink">
<path d="M11.75,17.25L11.75,18.75C12.105,18.75 12.449,18.624 12.72,18.395L11.75,17.25ZM11.75,30.75L12.72,29.606C12.449,29.376 12.105,29.25 11.75,29.25L11.75,30.75ZM19.708,37.492L20.678,36.348L20.678,36.348L19.708,37.492ZM19.708,10.508L20.678,11.653L20.679,11.651L19.708,10.508ZM11.75,15.75L7,15.75L7,18.75L11.75,18.75L11.75,15.75ZM7,15.75C5.068,15.75 3.5,17.318 3.5,19.25L6.5,19.25C6.5,18.974 6.724,18.75 7,18.75L7,15.75ZM3.5,19.25L3.5,28.75L6.5,28.75L6.5,19.25L3.5,19.25ZM3.5,28.75C3.5,30.682 5.068,32.25 7,32.25L7,29.25C6.724,29.25 6.5,29.026 6.5,28.75L3.5,28.75ZM7,32.25L11.75,32.25L11.75,29.25L7,29.25L7,32.25ZM10.78,31.895L18.738,38.637L20.678,36.348L12.72,29.606L10.78,31.895ZM18.738,38.636C21.014,40.565 24.5,38.946 24.5,35.966L21.5,35.966C21.5,36.394 21.002,36.623 20.678,36.348L18.738,38.636ZM24.5,35.966L24.5,12.034L21.5,12.034L21.5,35.966L24.5,35.966ZM24.5,12.034C24.5,9.055 21.012,7.434 18.737,9.365L20.679,11.651C21,11.379 21.5,11.606 21.5,12.034L24.5,12.034ZM18.738,9.364L10.78,16.106L12.72,18.395L20.678,11.653L18.738,9.364Z" fill="#FFFFFF"/>
<path d="M30.283,30.682C29.579,31.119 29.363,32.044 29.8,32.748C30.237,33.451 31.162,33.667 31.866,33.23L30.283,30.682ZM31.873,14.774C31.172,14.333 30.246,14.544 29.805,15.245C29.363,15.946 29.574,16.873 30.275,17.314L31.873,14.774ZM31.866,33.23C34.705,31.466 36.5,27.932 36.5,24.01L33.5,24.01C33.5,27.084 32.091,29.558 30.283,30.682L31.866,33.23ZM36.5,24.01C36.5,20.086 34.704,16.555 31.873,14.774L30.275,17.314C32.092,18.457 33.5,20.938 33.5,24.01L36.5,24.01Z" fill="#FFFFFF"/>
<path d="M36.032,36.993C35.404,37.533 35.333,38.48 35.873,39.108C36.413,39.736 37.36,39.807 37.988,39.267L36.032,36.993ZM37.977,8.734C37.348,8.194 36.401,8.267 35.862,8.895C35.322,9.524 35.394,10.471 36.023,11.01L37.977,8.734ZM37.988,39.267C41.97,35.843 44.5,30.25 44.5,24.006L41.5,24.006C41.5,29.47 39.282,34.197 36.032,36.993L37.988,39.267ZM44.5,24.006C44.5,17.754 41.966,12.156 37.977,8.734L36.023,11.01C39.278,13.804 41.5,18.534 41.5,24.006L44.5,24.006Z" fill="#FFFFFF"/>
</svg>
