<svg width="40" height="40" viewBox="0 0 40 40" fill="none" xmlns="http://www.w3.org/2000/svg" xmlns:xlink="http://www.w3.org/1999/xlink">
<path d="M37.006,29.525C38.588,26.708 39.5,23.462 39.5,20C39.5,9.229 30.771,0.5 20,0.5C9.229,0.5 0.5,9.229 0.5,20C0.5,30.771 9.229,39.5 20,39.5C23.462,39.5 26.708,38.588 29.525,37.006L39.5,39.5L37.006,29.525Z" clip-rule="evenodd" fill-rule="evenodd" transform="rotate(360 20 20)" fill="#FFFFFF" stroke="#FFFFFF" stroke-width="1.5" stroke-miterlimit="3.999327" stroke-linecap="round" stroke-linejoin="round"/>
<path d="M18.556,19.639C17.97,20.225 17.97,21.175 18.556,21.76C19.142,22.346 20.091,22.346 20.677,21.76L18.556,19.639ZM19.617,21.467L18.55,22.522L18.556,22.527L19.617,21.467ZM20.683,21.755C21.265,21.166 21.261,20.217 20.672,19.634C20.083,19.051 19.133,19.056 18.55,19.645L20.683,21.755ZM20.677,21.76C20.304,22.134 19.696,22.134 19.323,21.76L21.444,19.639C20.646,18.841 19.354,18.841 18.556,19.639L20.677,21.76ZM19.323,21.76C18.949,21.387 18.949,20.78 19.323,20.406L21.444,22.527C22.242,21.729 22.242,20.437 21.444,19.639L19.323,21.76ZM19.323,20.406C19.696,20.033 20.304,20.033 20.677,20.406L18.556,22.527C19.354,23.326 20.646,23.326 21.444,22.527L19.323,20.406ZM20.683,20.412C21.051,20.784 21.051,21.383 20.683,21.755L18.55,19.645C17.762,20.441 17.762,21.725 18.55,22.522L20.683,20.412Z" fill="#24786D"/>
<path d="M9.889,19.639C9.303,20.225 9.303,21.175 9.889,21.76C10.475,22.346 11.425,22.346 12.01,21.76L9.889,19.639ZM10.95,21.467L9.884,22.522L9.889,22.527L10.95,21.467ZM12.016,21.755C12.599,21.166 12.594,20.217 12.005,19.634C11.416,19.051 10.466,19.056 9.884,19.645L12.016,21.755ZM12.01,21.76C11.637,22.134 11.03,22.134 10.656,21.76L12.777,19.639C11.979,18.841 10.687,18.841 9.889,19.639L12.01,21.76ZM10.656,21.76C10.283,21.387 10.283,20.78 10.656,20.406L12.777,22.527C13.576,21.729 13.576,20.437 12.777,19.639L10.656,21.76ZM10.656,20.406C11.03,20.033 11.637,20.033 12.01,20.406L9.889,22.527C10.687,23.326 11.979,23.326 12.777,22.527L10.656,20.406ZM12.016,20.412C12.384,20.784 12.384,21.383 12.016,21.755L9.884,19.645C9.095,20.441 9.095,21.725 9.884,22.522L12.016,20.412Z" fill="#24786D"/>
<path d="M27.223,19.639C26.637,20.225 26.637,21.175 27.223,21.76C27.808,22.346 28.758,22.346 29.344,21.76L27.223,19.639ZM28.283,21.467L27.217,22.522L27.223,22.527L28.283,21.467ZM29.349,21.755C29.932,21.166 29.927,20.217 29.338,19.634C28.75,19.051 27.8,19.056 27.217,19.645L29.349,21.755ZM29.344,21.76C28.97,22.134 28.363,22.134 27.99,21.76L30.111,19.639C29.313,18.841 28.021,18.841 27.223,19.639L29.344,21.76ZM27.99,21.76C27.616,21.387 27.616,20.78 27.99,20.406L30.111,22.527C30.909,21.729 30.909,20.437 30.111,19.639L27.99,21.76ZM27.99,20.406C28.363,20.033 28.97,20.033 29.344,20.406L27.223,22.527C28.021,23.326 29.313,23.326 30.111,22.527L27.99,20.406ZM29.349,20.412C29.718,20.784 29.718,21.383 29.349,21.755L27.217,19.645C26.428,20.441 26.428,21.725 27.217,22.522L29.349,20.412Z" fill="#24786D"/>
</svg>
