<svg width="48" height="48" viewBox="0 0 48 48" fill="none" xmlns="http://www.w3.org/2000/svg" xmlns:xlink="http://www.w3.org/1999/xlink">
<path d="M24,24.5C21.514,24.5 19.5,22.486 19.5,20L16.5,20C16.5,24.142 19.858,27.5 24,27.5L24,24.5ZM19.5,20C19.5,17.514 21.514,15.5 24,15.5L24,12.5C19.858,12.5 16.5,15.858 16.5,20L19.5,20ZM24,15.5C26.486,15.5 28.5,17.514 28.5,20L31.5,20C31.5,15.858 28.142,12.5 24,12.5L24,15.5ZM28.5,20C28.5,22.486 26.486,24.5 24,24.5L24,27.5C28.142,27.5 31.5,24.142 31.5,20L28.5,20Z" fill="#797C7B" fill-opacity="0.5"/>
<path d="M25.474,40.704L24.46,39.598L25.474,40.704ZM23.54,39.598C21.779,37.985 18.729,34.984 16.131,31.384C13.502,27.741 11.5,23.71 11.5,20L8.5,20C8.5,24.676 10.964,29.351 13.699,33.14C16.465,36.972 19.679,40.13 21.513,41.81L23.54,39.598ZM11.5,20C11.5,13.096 17.096,7.5 24,7.5L24,4.5C15.44,4.5 8.5,11.44 8.5,20L11.5,20ZM24,7.5C30.904,7.5 36.5,13.096 36.5,20L39.5,20C39.5,11.44 32.56,4.5 24,4.5L24,7.5ZM36.5,20C36.5,23.71 34.498,27.741 31.869,31.384C29.271,34.984 26.221,37.985 24.46,39.598L26.487,41.81C28.321,40.13 31.535,36.972 34.301,33.14C37.036,29.351 39.5,24.676 39.5,20L36.5,20ZM21.513,41.81C22.932,43.109 25.068,43.109 26.487,41.81L24.46,39.598C24.189,39.847 23.811,39.847 23.54,39.598L21.513,41.81Z" fill="#797C7B" fill-opacity="0.5"/>
</svg>
