<svg width="48" height="48" viewBox="0 0 48 48" fill="none" xmlns="http://www.w3.org/2000/svg" xmlns:xlink="http://www.w3.org/1999/xlink">
<path d="M24,28.5C21.514,28.5 19.5,26.486 19.5,24L16.5,24C16.5,28.142 19.858,31.5 24,31.5L24,28.5ZM19.5,24L19.5,12L16.5,12L16.5,24L19.5,24ZM19.5,12C19.5,9.514 21.514,7.5 24,7.5L24,4.5C19.858,4.5 16.5,7.858 16.5,12L19.5,12ZM24,7.5C26.486,7.5 28.5,9.514 28.5,12L31.5,12C31.5,7.858 28.142,4.5 24,4.5L24,7.5ZM28.5,12L28.5,24L31.5,24L31.5,12L28.5,12ZM28.5,24C28.5,26.486 26.486,28.5 24,28.5L24,31.5C28.142,31.5 31.5,28.142 31.5,24L28.5,24Z" fill="#FFFFFF"/>
<path d="M37.5,20C37.5,19.172 36.828,18.5 36,18.5C35.172,18.5 34.5,19.172 34.5,20L37.5,20ZM24,34.5C23.172,34.5 22.5,35.172 22.5,36C22.5,36.828 23.172,37.5 24,37.5L24,34.5ZM13.5,20C13.5,19.172 12.828,18.5 12,18.5C11.172,18.5 10.5,19.172 10.5,20L13.5,20ZM34.5,20L34.5,24L37.5,24L37.5,20L34.5,20ZM34.5,24C34.5,29.8 29.8,34.5 24,34.5L24,37.5C31.456,37.5 37.5,31.456 37.5,24L34.5,24ZM24,34.5C18.2,34.5 13.5,29.8 13.5,24L10.5,24C10.5,31.456 16.544,37.5 24,37.5L24,34.5ZM13.5,24L13.5,20L10.5,20L10.5,24L13.5,24Z" fill="#FFFFFF"/>
<path d="M25.5,36C25.5,35.172 24.828,34.5 24,34.5C23.172,34.5 22.5,35.172 22.5,36L25.5,36ZM22.5,42C22.5,42.828 23.172,43.5 24,43.5C24.828,43.5 25.5,42.828 25.5,42L22.5,42ZM22.5,36L22.5,42L25.5,42L25.5,36L22.5,36Z" fill="#FFFFFF"/>
<path d="M15.64,40.5C14.812,40.5 14.14,41.172 14.14,42C14.14,42.828 14.812,43.5 15.64,43.5L15.64,40.5ZM32.36,43.5C33.189,43.5 33.86,42.828 33.86,42C33.86,41.172 33.189,40.5 32.36,40.5L32.36,43.5ZM15.64,43.5L32.36,43.5L32.36,40.5L15.64,40.5L15.64,43.5Z" fill="#FFFFFF"/>
</svg>
