<svg width="40" height="40" viewBox="0 0 40 40" fill="none" xmlns="http://www.w3.org/2000/svg" xmlns:xlink="http://www.w3.org/1999/xlink">
<path d="M20,40C8.954,40 0,31.046 0,20C0,8.954 8.954,0 20,0C31.046,0 40,8.954 40,20C40,31.046 31.046,40 20,40ZM20,38C29.941,38 38,29.941 38,20C38,10.059 29.941,2 20,2C10.059,2 2,10.059 2,20C2,29.941 10.059,38 20,38ZM19.976,34C12.848,34 6.084,27.164 6.084,22.223C6.084,19.387 12.244,22.8 19.976,22.8C27.708,22.8 33.937,19.392 33.917,22.223C33.882,27.011 27.104,34 19.976,34ZM19.976,27.7C26.604,27.7 31.188,25.138 31.188,23.29C31.188,21.443 26.604,24.392 19.976,24.392C13.349,24.392 8.84,21.797 8.84,23.29C8.84,24.784 13.349,27.7 19.976,27.7ZM13.975,16.45C12.663,16.45 11.6,15.387 11.6,14.075C11.6,12.763 12.663,11.7 13.975,11.7C15.287,11.7 16.35,12.763 16.35,14.075C16.35,15.387 15.287,16.45 13.975,16.45ZM25.975,16.45C24.663,16.45 23.6,15.387 23.6,14.075C23.6,12.763 24.663,11.7 25.975,11.7C27.287,11.7 28.35,12.763 28.35,14.075C28.35,15.387 27.287,16.45 25.975,16.45Z" clip-rule="evenodd" fill-rule="evenodd" fill="#000000"/>
</svg>
