<svg width="30" height="28" viewBox="0 0 30 28" fill="none" xmlns="http://www.w3.org/2000/svg" xmlns:xlink="http://www.w3.org/1999/xlink">
<path d="M22.25,24L6.5,24L6.5,27L22.25,27L22.25,24ZM6.5,24C4.842,24 3.5,22.658 3.5,21L0.5,21C0.5,24.314 3.186,27 6.5,27L6.5,24ZM3.5,21L3.5,7L0.5,7L0.5,21L3.5,21ZM3.5,7C3.5,5.342 4.842,4 6.5,4L6.5,1C3.186,1 0.5,3.686 0.5,7L3.5,7ZM6.5,4L22.25,4L22.25,1L6.5,1L6.5,4ZM22.25,4C23.908,4 25.25,5.342 25.25,7L28.25,7C28.25,3.686 25.564,1 22.25,1L22.25,4ZM25.25,7L25.25,21L28.25,21L28.25,7L25.25,7ZM25.25,21C25.25,22.658 23.908,24 22.25,24L22.25,27C25.564,27 28.25,24.314 28.25,21L25.25,21Z" fill="#989E9C"/>
</svg>
