<svg width="4" height="4" viewBox="0 0 4 4" fill="none" xmlns="http://www.w3.org/2000/svg" xmlns:xlink="http://www.w3.org/1999/xlink">
<path d="M3.131,0.869C2.546,0.283 1.596,0.283 1.01,0.869C0.424,1.454 0.424,2.404 1.01,2.99L3.131,0.869ZM1.01,2.99C1.596,3.576 2.546,3.576 3.131,2.99C3.717,2.404 3.717,1.454 3.131,0.869L1.01,2.99ZM1.01,2.99C0.463,2.443 0.463,1.557 1.01,1.01L3.131,3.131C3.756,2.506 3.756,1.493 3.131,0.869L1.01,2.99ZM1.01,1.01C1.557,0.463 2.443,0.463 2.99,1.01L0.869,3.131C1.493,3.756 2.507,3.756 3.131,3.131L1.01,1.01ZM2.99,1.01C3.537,1.557 3.537,2.443 2.99,2.99L0.869,0.869C0.244,1.493 0.244,2.506 0.869,3.131L2.99,1.01ZM2.99,2.99C2.443,3.537 1.557,3.537 1.01,2.99L3.131,0.869C2.507,0.244 1.493,0.244 0.869,0.869L2.99,2.99Z" fill="#3D4A7A"/>
</svg>
