<svg width="40" height="40" viewBox="0 0 40 40" fill="none" xmlns="http://www.w3.org/2000/svg" xmlns:xlink="http://www.w3.org/1999/xlink">
<path d="M22,28.5C21.172,28.5 20.5,29.172 20.5,30C20.5,30.828 21.172,31.5 22,31.5L22,28.5ZM12,30L13.5,30C13.5,29.172 12.828,28.5 12,28.5L12,30ZM12,38L10.5,38C10.5,38.577 10.831,39.102 11.35,39.352C11.87,39.602 12.487,39.532 12.937,39.171L12,38ZM22.937,31.171C23.584,30.654 23.689,29.71 23.171,29.063C22.654,28.416 21.71,28.311 21.063,28.829L22.937,31.171ZM22,31.5L32,31.5L32,28.5L22,28.5L22,31.5ZM32,31.5C36.142,31.5 39.5,28.142 39.5,24L36.5,24C36.5,26.486 34.486,28.5 32,28.5L32,31.5ZM39.5,24L39.5,8L36.5,8L36.5,24L39.5,24ZM39.5,8C39.5,3.858 36.142,0.5 32,0.5L32,3.5C34.486,3.5 36.5,5.514 36.5,8L39.5,8ZM32,0.5L8,0.5L8,3.5L32,3.5L32,0.5ZM8,0.5C3.858,0.5 0.5,3.858 0.5,8L3.5,8C3.5,5.514 5.514,3.5 8,3.5L8,0.5ZM0.5,8L0.5,24L3.5,24L3.5,8L0.5,8ZM0.5,24C0.5,28.142 3.858,31.5 8,31.5L8,28.5C5.514,28.5 3.5,26.486 3.5,24L0.5,24ZM8,31.5L12,31.5L12,28.5L8,28.5L8,31.5ZM10.5,30L10.5,38L13.5,38L13.5,30L10.5,30ZM12.937,39.171L22.937,31.171L21.063,28.829L11.063,36.829L12.937,39.171Z" fill="#FFFFFF"/>
</svg>
