<svg width="30" height="26" viewBox="0 0 30 26" fill="none" xmlns="http://www.w3.org/2000/svg" xmlns:xlink="http://www.w3.org/1999/xlink">
<path d="M22.25,22L6.5,22L6.5,25L22.25,25L22.25,22ZM6.5,22C4.842,22 3.5,20.658 3.5,19L0.5,19C0.5,22.314 3.186,25 6.5,25L6.5,22ZM3.5,19L3.5,5L0.5,5L0.5,19L3.5,19ZM3.5,5C3.5,3.342 4.842,2 6.5,2L6.5,-1C3.186,-1 0.5,1.686 0.5,5L3.5,5ZM6.5,2L22.25,2L22.25,-1L6.5,-1L6.5,2ZM22.25,2C23.908,2 25.25,3.342 25.25,5L28.25,5C28.25,1.686 25.564,-1 22.25,-1L22.25,2ZM25.25,5L25.25,19L28.25,19L28.25,5L25.25,5ZM25.25,19C25.25,20.658 23.908,22 22.25,22L22.25,25C25.564,25 28.25,22.314 28.25,19L25.25,19Z" fill="#989E9C"/>
</svg>
