<svg width="36" height="40" viewBox="0 0 36 40" fill="none" xmlns="http://www.w3.org/2000/svg" xmlns:xlink="http://www.w3.org/1999/xlink">
<path d="M22.819,13.811C23.404,13.225 23.404,12.275 22.819,11.689C22.233,11.104 21.283,11.104 20.697,11.689L22.819,13.811ZM11.847,28.645C11.261,28.059 10.311,28.059 9.725,28.645C9.14,29.231 9.14,30.181 9.725,30.767L11.847,28.645ZM16.77,29.706L15.709,28.645L15.709,28.645L16.77,29.706ZM31.234,15.242L32.295,16.303L32.295,16.303L31.234,15.242ZM30.173,5.331C30.759,5.916 31.709,5.916 32.295,5.331C32.88,4.745 32.88,3.795 32.295,3.209L30.173,5.331ZM20.262,4.27L21.323,5.331L21.323,5.331L20.262,4.27ZM5.798,18.734L4.737,17.673L4.737,17.673L5.798,18.734ZM6.859,33.633C6.273,33.047 5.323,33.047 4.737,33.633C4.152,34.219 4.152,35.169 4.737,35.755L6.859,33.633ZM21.758,34.694L20.697,33.633L20.697,33.633L21.758,34.694ZM31.597,26.977C32.182,26.391 32.182,25.441 31.597,24.855C31.011,24.269 30.061,24.269 29.475,24.855L31.597,26.977ZM20.697,11.689L9.725,22.661L11.847,24.783L22.819,13.811L20.697,11.689ZM9.725,22.661C7.488,24.899 7.488,28.529 9.725,30.767L11.847,28.645C10.78,27.579 10.78,25.849 11.847,24.783L9.725,22.661ZM9.725,30.767C11.963,33.004 15.593,33.004 17.831,30.767L15.709,28.645C14.643,29.711 12.913,29.711 11.847,28.645L9.725,30.767ZM17.831,30.767L32.295,16.303L30.173,14.181L15.709,28.645L17.831,30.767ZM32.295,16.303C35.91,12.687 35.91,6.825 32.295,3.209L30.173,5.331C32.618,7.775 32.618,11.737 30.173,14.181L32.295,16.303ZM32.295,3.209C28.679,-0.406 22.817,-0.406 19.201,3.209L21.323,5.331C23.767,2.886 27.729,2.886 30.173,5.331L32.295,3.209ZM19.201,3.209L4.737,17.673L6.859,19.795L21.323,5.331L19.201,3.209ZM4.737,17.673C-0.256,22.667 -0.256,30.761 4.737,35.755L6.859,33.633C3.036,29.811 3.036,23.617 6.859,19.795L4.737,17.673ZM4.737,35.755C9.731,40.748 17.825,40.748 22.819,35.755L20.697,33.633C16.875,37.455 10.681,37.455 6.859,33.633L4.737,35.755ZM22.819,35.755L31.597,26.977L29.475,24.855L20.697,33.633L22.819,35.755Z" fill="#000E08" fill-opacity="0.5"/>
</svg>
