<svg width="14" height="22" viewBox="0 0 14 22" fill="none" xmlns="http://www.w3.org/2000/svg" xmlns:xlink="http://www.w3.org/1999/xlink">
<path d="M1.69,11.025C1.045,10.506 0.101,10.608 -0.419,11.254C-0.938,11.899 -0.836,12.843 -0.19,13.363L1.69,11.025ZM8.34,18.302L9.281,17.134L9.28,17.133L8.34,18.302ZM8.34,1.698L9.28,2.867L9.281,2.866L8.34,1.698ZM-0.19,6.637C-0.836,7.157 -0.938,8.101 -0.419,8.746C0.101,9.392 1.045,9.494 1.69,8.975L-0.19,6.637ZM-0.19,13.363L7.4,19.471L9.28,17.133L1.69,11.025L-0.19,13.363ZM7.399,19.47C9.853,21.447 13.5,19.699 13.5,16.55L10.5,16.55C10.5,17.181 9.771,17.529 9.281,17.134L7.399,19.47ZM13.5,16.55L13.5,3.45L10.5,3.45L10.5,16.55L13.5,16.55ZM13.5,3.45C13.5,0.301 9.853,-1.447 7.399,0.53L9.281,2.866C9.771,2.471 10.5,2.819 10.5,3.45L13.5,3.45ZM7.4,0.529L-0.19,6.637L1.69,8.975L9.28,2.867L7.4,0.529Z" fill="#FFFFFF"/>
</svg>
