<svg width="282" height="72" viewBox="0 0 282 72" fill="none" xmlns="http://www.w3.org/2000/svg" xmlns:xlink="http://www.w3.org/1999/xlink">
<path d="M0,0L246,0C257.182,0 262.774,0 267.184,1.827C273.066,4.263 277.738,8.935 280.174,14.816C282,19.226 282,24.817 282,36L282,36C282,47.183 282,52.774 280.174,57.184C277.738,63.065 273.066,67.737 267.184,70.173C262.774,72 257.182,72 246,72L36,72C24.817,72 19.226,72 14.816,70.173C8.935,67.737 4.263,63.065 1.827,57.184C0,52.774 0,47.183 0,36L0,0Z" transform="rotate(360 141 36)" fill="#3D4A7A"/>
</svg>
