<svg width="328" height="72" viewBox="0 0 328 72" fill="none" xmlns="http://www.w3.org/2000/svg" xmlns:xlink="http://www.w3.org/1999/xlink">
<path d="M0,0L292,0C303.182,0 308.774,0 313.184,1.827C319.066,4.263 323.738,8.935 326.174,14.816C328,19.226 328,24.817 328,36L328,36C328,47.183 328,52.774 326.174,57.184C323.738,63.065 319.066,67.737 313.184,70.173C308.774,72 303.182,72 292,72L36,72C24.817,72 19.226,72 14.816,70.173C8.935,67.737 4.263,63.065 1.827,57.184C0,52.774 0,47.183 0,36L0,0Z" fill="#F2F7FB"/>
</svg>
