<svg width="224" height="72" viewBox="0 0 224 72" fill="none" xmlns="http://www.w3.org/2000/svg" xmlns:xlink="http://www.w3.org/1999/xlink">
<path d="M0,0L188,0C199.183,0 204.774,0 209.184,1.827C215.066,4.263 219.738,8.935 222.174,14.816C224,19.226 224,24.817 224,36L224,36C224,47.183 224,52.774 222.174,57.184C219.738,63.065 215.066,67.737 209.184,70.173C204.774,72 199.183,72 188,72L36,72C24.817,72 19.226,72 14.816,70.173C8.935,67.737 4.263,63.065 1.827,57.184C0,52.774 0,47.183 0,36L0,0Z" fill="#F2F7FB"/>
</svg>
