<svg width="384" height="244" viewBox="0 0 384 244" fill="none" xmlns="http://www.w3.org/2000/svg" xmlns:xlink="http://www.w3.org/1999/xlink">
<path d="M0,36C0,24.817 0,19.226 1.827,14.816C4.263,8.935 8.935,4.263 14.816,1.827C19.226,0 24.817,0 36,0L348,0C359.182,0 364.774,0 369.184,1.827C375.066,4.263 379.738,8.935 382.174,14.816C384,19.226 384,24.817 384,36L384,208C384,219.182 384,224.774 382.174,229.184C379.738,235.066 375.066,239.738 369.184,242.174C364.774,244 359.182,244 348,244L36,244C24.817,244 19.226,244 14.816,242.174C8.935,239.738 4.263,235.066 1.827,229.184C0,224.774 0,219.182 0,208L0,36Z" fill="url(#pattern_0_3_2684)"/>
</svg>
