<svg width="440" height="76" viewBox="0 0 440 76" fill="none" xmlns="http://www.w3.org/2000/svg" xmlns:xlink="http://www.w3.org/1999/xlink">
<path d="M0,0L404,0C415.182,0 420.774,0 425.184,1.827C431.066,4.263 435.738,8.935 438.174,14.816C440,19.226 440,24.817 440,36L440,40C440,51.183 440,56.774 438.174,61.184C435.738,67.065 431.066,71.737 425.184,74.173C420.774,76 415.182,76 404,76L36,76C24.817,76 19.226,76 14.816,74.173C8.935,71.737 4.263,67.065 1.827,61.184C0,56.774 0,51.183 0,40L0,0Z" fill="#F2F7FB"/>
</svg>
