<svg width="282" height="74" viewBox="0 0 282 74" fill="none" xmlns="http://www.w3.org/2000/svg" xmlns:xlink="http://www.w3.org/1999/xlink">
<path d="M0,0L246,0C257.182,0 262.774,0 267.184,1.827C273.066,4.263 277.738,8.935 280.174,14.816C282,19.226 282,24.817 282,36L282,38C282,49.183 282,54.774 280.174,59.184C277.738,65.065 273.066,69.737 267.184,72.173C262.774,74 257.182,74 246,74L36,74C24.817,74 19.226,74 14.816,72.173C8.935,69.737 4.263,65.065 1.827,59.184C0,54.774 0,49.183 0,38L0,0Z" transform="rotate(360 141 37)" fill="#20A090"/>
</svg>
