<svg width="368" height="72" viewBox="0 0 368 72" fill="none" xmlns="http://www.w3.org/2000/svg" xmlns:xlink="http://www.w3.org/1999/xlink">
<path d="M0,0L332,0C343.182,0 348.774,0 353.184,1.827C359.066,4.263 363.738,8.935 366.174,14.816C368,19.226 368,24.817 368,36L368,36C368,47.183 368,52.774 366.174,57.184C363.738,63.065 359.066,67.737 353.184,70.173C348.774,72 343.182,72 332,72L36,72C24.817,72 19.226,72 14.816,70.173C8.935,67.737 4.263,63.065 1.827,57.184C0,52.774 0,47.183 0,36L0,0Z" fill="#F2F7FB"/>
</svg>
