<svg width="444" height="76" viewBox="0 0 444 76" fill="none" xmlns="http://www.w3.org/2000/svg" xmlns:xlink="http://www.w3.org/1999/xlink">
<path d="M0,0L408,0C419.182,0 424.774,0 429.184,1.827C435.066,4.263 439.738,8.935 442.174,14.816C444,19.226 444,24.817 444,36L444,40C444,51.183 444,56.774 442.174,61.184C439.738,67.065 435.066,71.737 429.184,74.173C424.774,76 419.182,76 408,76L36,76C24.817,76 19.226,76 14.816,74.173C8.935,71.737 4.263,67.065 1.827,61.184C0,56.774 0,51.183 0,40L0,0Z" transform="rotate(360 222 38)" fill="#3D4A7A"/>
</svg>
