<svg width="290" height="72" viewBox="0 0 290 72" fill="none" xmlns="http://www.w3.org/2000/svg" xmlns:xlink="http://www.w3.org/1999/xlink">
<path d="M0,0L254,0C265.182,0 270.774,0 275.184,1.827C281.066,4.263 285.738,8.935 288.174,14.816C290,19.226 290,24.817 290,36L290,36C290,47.183 290,52.774 288.174,57.184C285.738,63.065 281.066,67.737 275.184,70.173C270.774,72 265.182,72 254,72L36,72C24.817,72 19.226,72 14.816,70.173C8.935,67.737 4.263,63.065 1.827,57.184C0,52.774 0,47.183 0,36L0,0Z" transform="rotate(360 145 36)" fill="#3D4A7A"/>
</svg>
