<svg width="24" height="38" viewBox="0 0 24 38" fill="none" xmlns="http://www.w3.org/2000/svg" xmlns:xlink="http://www.w3.org/1999/xlink">
<path d="M11.997,0C8.46,0 5.58,2.871 5.58,6.413L5.58,21.265C5.58,24.808 8.453,27.679 11.997,27.679C15.533,27.679 18.413,24.807 18.413,21.265L18.413,6.413C18.413,2.871 15.541,0 11.997,0ZM8.33,6.405L8.33,21.274C8.33,23.276 9.972,24.928 11.997,24.928C14.036,24.928 15.663,23.292 15.663,21.274L15.663,6.405C15.663,4.402 14.022,2.751 11.997,2.751C9.958,2.751 8.33,4.387 8.33,6.405Z" clip-rule="evenodd" fill-rule="evenodd" fill="#000000"/>
<path d="M13.5,35.249L13.5,31.414C20.5,31.014 23.5,25.272 23.5,19.661L23.5,17.074C23.501,17.054 23.501,17.034 23.5,17.013L23.5,16.982C23.5,16.223 22.879,15.607 22.12,15.607C21.361,15.607 20.76,16.223 20.76,16.982L20.76,19.66C20.76,25.271 18.5,29.113 12.1,29.113C6.5,29.113 3.25,25.271 3.25,19.66L3.25,17.074C3.25,16.314 2.634,15.699 1.875,15.699C1.116,15.699 0.5,16.314 0.5,17.074L0.5,19.661C0.5,25.278 4.5,31.014 10.7,31.414L10.7,35.249L5.546,35.249C4.797,35.249 4.167,35.865 4.167,36.624C4.167,37.389 4.784,38 5.546,38L18.5,38C19.25,38 19.9,37.384 19.9,36.624C19.9,35.859 19.262,35.249 18.5,35.249L13.5,35.249Z" fill="#000000"/>
</svg>
