<svg width="668" height="634" viewBox="0 0 668 634" fill="none" xmlns="http://www.w3.org/2000/svg" xmlns:xlink="http://www.w3.org/1999/xlink">
<path d="M100.667,-0.5L567.333,-0.5C593.855,-0.5 619.291,10.036 638.045,28.789C656.799,47.543 667.333,72.978 667.333,99.5L667.333,366.167C667.333,392.689 656.799,418.125 638.045,436.877C619.291,455.631 593.855,466.167 567.333,466.167L335.401,466.167L120.6,626.433C115.641,630.133 109.75,632.381 103.586,632.923C97.422,633.465 91.229,632.279 85.7,629.501C80.171,626.723 75.525,622.461 72.281,617.191C69.037,611.923 67.324,605.855 67.334,599.667L67.334,466.133C49.653,466.133 32.696,459.109 20.193,446.607C7.691,434.105 0.667,417.149 0.667,399.467L0.667,99.467C0.667,72.945 11.203,47.51 29.956,28.756C48.71,10.002 74.145,-0.5 100.667,-0.5Z" fill="#FFFFFF" fill-opacity="0.03"/>
</svg>
