<svg width="20" height="28" viewBox="0 0 20 28" fill="none" xmlns="http://www.w3.org/2000/svg" xmlns:xlink="http://www.w3.org/1999/xlink">
<path d="M0.939,8.939C0.354,9.525 0.354,10.475 0.939,11.061C1.525,11.646 2.475,11.646 3.061,11.061L0.939,8.939ZM10,2L11.061,0.939C10.475,0.354 9.525,0.354 8.939,0.939L10,2ZM16.939,11.061C17.525,11.646 18.475,11.646 19.061,11.061C19.646,10.475 19.646,9.525 19.061,8.939L16.939,11.061ZM8.5,26C8.5,26.828 9.172,27.5 10,27.5C10.828,27.5 11.5,26.828 11.5,26L8.5,26ZM3.061,11.061L11.061,3.061L8.939,0.939L0.939,8.939L3.061,11.061ZM8.939,3.061L16.939,11.061L19.061,8.939L11.061,0.939L8.939,3.061ZM8.5,2L8.5,26L11.5,26L11.5,2L8.5,2Z" transform="rotate(180 10 14)" fill="#FFFFFF"/>
</svg>
