<svg width="42" height="42" viewBox="0 0 42 42" fill="none" xmlns="http://www.w3.org/2000/svg" xmlns:xlink="http://www.w3.org/1999/xlink">
<path d="M26.5,28.667L26.206,30.138C26.869,30.27 27.539,29.943 27.842,29.337L26.5,28.667ZM11.333,13.5L10.663,12.158C10.058,12.461 9.73,13.131 9.862,13.794L11.333,13.5ZM12.1,13.116L12.771,14.458L12.771,14.458L12.1,13.116ZM14.186,7.631L15.579,7.074L15.579,7.074L14.186,7.631ZM12.423,3.224L11.03,3.781L11.03,3.781L12.423,3.224ZM36.776,27.577L36.219,28.97L36.219,28.97L36.776,27.577ZM32.369,25.814L32.926,24.421L32.926,24.421L32.369,25.814ZM26.884,27.9L28.225,28.57L28.225,28.57L26.884,27.9ZM29.333,17.833C29.333,18.662 30.005,19.333 30.833,19.333C31.662,19.333 32.333,18.662 32.333,17.833L29.333,17.833ZM30.174,14.517L31.559,13.943L31.559,13.943L30.174,14.517ZM25.483,9.826L26.057,8.441L26.057,8.441L25.483,9.826ZM22.167,7.667C21.338,7.667 20.667,8.338 20.667,9.167C20.667,9.995 21.338,10.667 22.167,10.667L22.167,7.667ZM38,17.833C38,18.662 38.672,19.333 39.5,19.333C40.328,19.333 41,18.662 41,17.833L38,17.833ZM38.181,11.2L39.566,10.626L39.566,10.626L38.181,11.2ZM28.8,1.819L29.374,0.434L29.374,0.434L28.8,1.819ZM22.167,-1C21.338,-1 20.667,-0.328 20.667,0.5C20.667,1.328 21.338,2 22.167,2L22.167,-1ZM38,31.6L38,35.167L41,35.167L41,31.6L38,31.6ZM4.833,2L8.4,2L8.4,-1L4.833,-1L4.833,2ZM26.5,28.667C26.794,27.196 26.795,27.196 26.795,27.196C26.795,27.196 26.795,27.196 26.796,27.196C26.796,27.196 26.796,27.196 26.797,27.196C26.797,27.196 26.797,27.196 26.797,27.196C26.797,27.196 26.796,27.196 26.793,27.196C26.787,27.194 26.777,27.192 26.761,27.189C26.731,27.182 26.681,27.171 26.613,27.154C26.478,27.121 26.273,27.068 26.009,26.991C25.482,26.836 24.726,26.584 23.841,26.205C22.063,25.443 19.805,24.183 17.811,22.189L15.689,24.311C18.029,26.65 20.645,28.099 22.659,28.962C23.67,29.395 24.539,29.685 25.163,29.869C25.475,29.961 25.726,30.026 25.904,30.069C25.993,30.091 26.064,30.107 26.115,30.118C26.14,30.124 26.161,30.128 26.176,30.131C26.183,30.133 26.19,30.134 26.195,30.135C26.197,30.136 26.199,30.136 26.201,30.137C26.202,30.137 26.203,30.137 26.204,30.137C26.204,30.137 26.205,30.137 26.205,30.137C26.205,30.137 26.206,30.138 26.5,28.667ZM17.811,22.189C15.817,20.196 14.557,17.937 13.795,16.159C13.416,15.274 13.165,14.518 13.009,13.991C12.932,13.727 12.879,13.522 12.846,13.387C12.829,13.319 12.818,13.269 12.811,13.239C12.808,13.223 12.806,13.213 12.805,13.207C12.804,13.204 12.804,13.203 12.804,13.203C12.804,13.203 12.804,13.203 12.804,13.203C12.804,13.204 12.804,13.204 12.804,13.204C12.804,13.205 12.804,13.205 12.804,13.205C12.804,13.205 12.804,13.206 11.333,13.5C9.862,13.794 9.863,13.795 9.863,13.795C9.863,13.795 9.863,13.796 9.863,13.796C9.863,13.797 9.863,13.798 9.863,13.799C9.864,13.801 9.864,13.803 9.865,13.805C9.866,13.81 9.867,13.817 9.869,13.824C9.872,13.839 9.876,13.86 9.882,13.885C9.893,13.936 9.909,14.007 9.931,14.096C9.974,14.274 10.039,14.525 10.131,14.837C10.315,15.461 10.605,16.33 11.038,17.341C11.901,19.355 13.35,21.971 15.689,24.311L17.811,22.189ZM12.004,14.842L12.771,14.458L11.43,11.775L10.663,12.158L12.004,14.842ZM15.579,7.074L13.816,2.667L11.03,3.781L12.793,8.188L15.579,7.074ZM37.333,26.184L32.926,24.421L31.812,27.207L36.219,28.97L37.333,26.184ZM25.542,27.229L25.158,27.996L27.842,29.337L28.225,28.57L25.542,27.229ZM32.926,24.421C30.109,23.295 26.899,24.515 25.542,27.229L28.225,28.57C28.884,27.252 30.443,26.66 31.812,27.207L32.926,24.421ZM12.771,14.458C15.485,13.101 16.705,9.891 15.579,7.074L12.793,8.188C13.34,9.557 12.748,11.116 11.43,11.775L12.771,14.458ZM8.4,2C9.558,2 10.6,2.705 11.03,3.781L13.816,2.667C12.93,0.452 10.785,-1 8.4,-1L8.4,2ZM41,31.6C41,29.215 39.548,27.07 37.333,26.184L36.219,28.97C37.295,29.4 38,30.442 38,31.6L41,31.6ZM35.167,38C16.849,38 2,23.151 2,4.833L-1,4.833C-1,24.808 15.192,41 35.167,41L35.167,38ZM35.167,41C38.388,41 41,38.388 41,35.167L38,35.167C38,36.731 36.731,38 35.167,38L35.167,41ZM2,4.833C2,3.269 3.269,2 4.833,2L4.833,-1C1.612,-1 -1,1.612 -1,4.833L2,4.833ZM32.333,17.833C32.333,16.498 32.07,15.176 31.559,13.943L28.788,15.091C29.148,15.96 29.333,16.892 29.333,17.833L32.333,17.833ZM31.559,13.943C31.049,12.709 30.3,11.588 29.356,10.644L27.234,12.766C27.9,13.431 28.428,14.221 28.788,15.091L31.559,13.943ZM29.356,10.644C28.412,9.7 27.291,8.951 26.057,8.441L24.909,11.212C25.779,11.572 26.569,12.1 27.234,12.766L29.356,10.644ZM26.057,8.441C24.824,7.93 23.502,7.667 22.167,7.667L22.167,10.667C23.108,10.667 24.04,10.852 24.909,11.212L26.057,8.441ZM41,17.833C41,15.36 40.513,12.911 39.566,10.626L36.795,11.774C37.59,13.695 38,15.754 38,17.833L41,17.833ZM39.566,10.626C38.62,8.341 37.233,6.265 35.484,4.516L33.363,6.637C34.833,8.108 35.999,9.853 36.795,11.774L39.566,10.626ZM35.484,4.516C33.735,2.767 31.659,1.38 29.374,0.434L28.226,3.205C30.147,4.001 31.892,5.167 33.363,6.637L35.484,4.516ZM29.374,0.434C27.089,-0.513 24.64,-1 22.167,-1L22.167,2C24.246,2 26.305,2.41 28.226,3.205L29.374,0.434Z" fill="#3D4A7A"/>
</svg>
