<svg width="28" height="28" viewBox="0 0 28 28" fill="none" xmlns="http://www.w3.org/2000/svg" xmlns:xlink="http://www.w3.org/1999/xlink">
<path d="M23.333,11.2C23.996,11.2 24.533,10.663 24.533,10C24.533,9.337 23.996,8.8 23.333,8.8L23.333,11.2ZM20.667,10L20.667,8.8L20.667,8.8L20.667,10ZM18,7.333L19.2,7.333L19.2,7.333L18,7.333ZM19.2,4.667C19.2,4.004 18.663,3.467 18,3.467C17.337,3.467 16.8,4.004 16.8,4.667L19.2,4.667ZM26.849,2.849C27.317,2.38 27.317,1.62 26.849,1.151C26.38,0.683 25.62,0.683 25.151,1.151L26.849,2.849ZM18.485,7.818C18.016,8.287 18.016,9.047 18.485,9.515C18.953,9.984 19.713,9.984 20.182,9.515L18.485,7.818ZM18,19.333L17.765,20.51C18.295,20.616 18.831,20.354 19.073,19.87L18,19.333ZM8.667,10L8.13,8.927C7.646,9.169 7.384,9.705 7.49,10.235L8.667,10ZM9.139,9.764L9.675,10.837L9.675,10.837L9.139,9.764ZM10.422,6.388L11.536,5.943L11.536,5.943L10.422,6.388ZM9.337,3.676L8.223,4.122L8.223,4.122L9.337,3.676ZM24.324,18.663L24.769,17.549L24.769,17.549L24.324,18.663ZM21.612,17.578L22.057,16.464L22.057,16.464L21.612,17.578ZM18.236,18.861L19.309,19.398L19.309,19.398L18.236,18.861ZM23.333,8.8L20.667,8.8L20.667,11.2L23.333,11.2L23.333,8.8ZM19.2,7.333L19.2,4.667L16.8,4.667L16.8,7.333L19.2,7.333ZM25.151,1.151L18.485,7.818L20.182,9.515L26.849,2.849L25.151,1.151ZM20.667,8.8C19.857,8.8 19.2,8.143 19.2,7.333L16.8,7.333C16.8,9.469 18.531,11.2 20.667,11.2L20.667,8.8ZM24.8,21.139L24.8,23.333L27.2,23.333L27.2,21.139L24.8,21.139ZM4.667,3.2L6.861,3.2L6.861,0.8L4.667,0.8L4.667,3.2ZM18,19.333C18.235,18.157 18.236,18.157 18.236,18.157C18.236,18.157 18.236,18.157 18.237,18.157C18.237,18.157 18.237,18.157 18.238,18.157C18.238,18.157 18.238,18.157 18.239,18.157C18.239,18.157 18.238,18.157 18.237,18.157C18.235,18.156 18.229,18.155 18.221,18.153C18.204,18.15 18.175,18.143 18.135,18.133C18.056,18.114 17.934,18.083 17.776,18.036C17.46,17.943 17.006,17.792 16.473,17.564C15.401,17.104 14.044,16.347 12.849,15.151L11.151,16.849C12.623,18.32 14.266,19.229 15.527,19.77C16.161,20.041 16.706,20.223 17.099,20.339C17.295,20.397 17.454,20.438 17.568,20.465C17.625,20.479 17.67,20.49 17.703,20.497C17.72,20.501 17.733,20.504 17.744,20.506C17.749,20.507 17.753,20.508 17.757,20.508C17.758,20.509 17.76,20.509 17.761,20.509C17.762,20.509 17.763,20.51 17.763,20.51C17.763,20.51 17.764,20.51 17.764,20.51C17.764,20.51 17.765,20.51 18,19.333ZM12.849,15.151C11.653,13.956 10.896,12.599 10.436,11.527C10.208,10.994 10.057,10.54 9.964,10.224C9.917,10.066 9.886,9.944 9.867,9.865C9.857,9.825 9.85,9.796 9.847,9.779C9.845,9.771 9.844,9.765 9.843,9.763C9.843,9.762 9.843,9.761 9.843,9.761C9.843,9.762 9.843,9.762 9.843,9.762C9.843,9.763 9.843,9.763 9.843,9.763C9.843,9.764 9.843,9.764 9.843,9.764C9.843,9.764 9.843,9.765 8.667,10C7.49,10.235 7.49,10.236 7.49,10.236C7.49,10.236 7.49,10.237 7.49,10.237C7.49,10.237 7.491,10.238 7.491,10.239C7.491,10.24 7.491,10.242 7.492,10.243C7.492,10.247 7.493,10.251 7.494,10.256C7.496,10.267 7.499,10.28 7.503,10.297C7.51,10.33 7.521,10.375 7.535,10.432C7.562,10.546 7.603,10.705 7.661,10.901C7.777,11.294 7.959,11.839 8.23,12.473C8.771,13.734 9.68,15.377 11.151,16.849L12.849,15.151ZM9.203,11.073L9.675,10.837L8.602,8.691L8.13,8.927L9.203,11.073ZM11.536,5.943L10.451,3.231L8.223,4.122L9.308,6.834L11.536,5.943ZM24.769,17.549L22.057,16.464L21.166,18.692L23.878,19.777L24.769,17.549ZM17.163,18.325L16.927,18.797L19.073,19.87L19.309,19.398L17.163,18.325ZM22.057,16.464C20.19,15.717 18.062,16.526 17.163,18.325L19.309,19.398C19.65,18.716 20.458,18.409 21.166,18.692L22.057,16.464ZM9.675,10.837C11.474,9.938 12.283,7.81 11.536,5.943L9.308,6.834C9.591,7.542 9.284,8.35 8.602,8.691L9.675,10.837ZM6.861,3.2C7.461,3.2 8,3.565 8.223,4.122L10.451,3.231C9.864,1.763 8.442,0.8 6.861,0.8L6.861,3.2ZM27.2,21.139C27.2,19.558 26.237,18.136 24.769,17.549L23.878,19.777C24.435,20 24.8,20.539 24.8,21.139L27.2,21.139ZM23.333,24.8C12.214,24.8 3.2,15.786 3.2,4.667L0.8,4.667C0.8,17.111 10.889,27.2 23.333,27.2L23.333,24.8ZM23.333,27.2C25.469,27.2 27.2,25.469 27.2,23.333L24.8,23.333C24.8,24.143 24.143,24.8 23.333,24.8L23.333,27.2ZM3.2,4.667C3.2,3.857 3.857,3.2 4.667,3.2L4.667,0.8C2.531,0.8 0.8,2.531 0.8,4.667L3.2,4.667Z" fill="#3D4A7A"/>
</svg>
