<svg width="38" height="38" viewBox="0 0 38 38" fill="none" xmlns="http://www.w3.org/2000/svg" xmlns:xlink="http://www.w3.org/1999/xlink">
<path d="M2.999,7.832L4.278,8.616L4.278,8.616L2.999,7.832ZM8.021,6.563L8.738,5.246L8.738,5.246L8.021,6.563ZM1.16,10.834L-0.119,10.051L-0.119,10.051L1.16,10.834ZM33.002,28.168L34.281,28.951L33.002,28.168ZM27.979,29.437L28.697,28.119L28.697,28.119L27.979,29.437ZM34.84,25.165L33.561,24.382L34.84,25.165ZM34.84,10.834L36.12,10.051L36.12,10.051L34.84,10.834ZM27.979,6.563L27.262,5.246L27.262,5.246L27.979,6.563ZM33.002,7.832L31.723,8.616L31.723,8.616L33.002,7.832ZM1.16,25.166L-0.119,25.949L1.16,25.166ZM2.999,28.168L4.278,27.384L2.999,28.168ZM8.021,29.437L7.304,28.119L7.304,28.119L8.021,29.437ZM8.217,29.33L7.499,28.013L8.217,29.33ZM8.217,6.67L7.499,7.987L8.217,6.67ZM16.162,2.167L19.839,2.167L19.839,-0.833L16.162,-0.833L16.162,2.167ZM19.839,33.833L16.162,33.833L16.162,36.833L19.839,36.833L19.839,33.833ZM16.162,33.833C14.875,33.833 13.985,32.871 13.985,31.867L10.985,31.867C10.985,34.692 13.387,36.833 16.162,36.833L16.162,33.833ZM22.015,31.867C22.015,32.871 21.125,33.833 19.839,33.833L19.839,36.833C22.613,36.833 25.015,34.692 25.015,31.867L22.015,31.867ZM19.839,2.167C21.125,2.167 22.015,3.129 22.015,4.133L25.015,4.133C25.015,1.308 22.613,-0.833 19.839,-0.833L19.839,2.167ZM16.162,-0.833C13.387,-0.833 10.985,1.308 10.985,4.133L13.985,4.133C13.985,3.129 14.875,2.167 16.162,2.167L16.162,-0.833ZM33.561,24.382L31.723,27.384L34.281,28.951L36.12,25.949L33.561,24.382ZM2.439,11.618L4.278,8.616L1.719,7.049L-0.119,10.051L2.439,11.618ZM4.278,8.616C4.856,7.671 6.213,7.287 7.304,7.881L8.738,5.246C6.312,3.925 3.172,4.677 1.719,7.049L4.278,8.616ZM3.223,14.253C2.179,13.684 1.896,12.506 2.439,11.618L-0.119,10.051C-1.606,12.479 -0.684,15.541 1.789,16.887L3.223,14.253ZM31.723,27.384C31.145,28.329 29.788,28.713 28.697,28.119L27.262,30.754C29.688,32.075 32.829,31.323 34.281,28.951L31.723,27.384ZM36.12,25.949C37.607,23.521 36.685,20.459 34.212,19.113L32.777,21.747C33.822,22.316 34.105,23.494 33.561,24.382L36.12,25.949ZM4.278,27.384L2.439,24.382L-0.119,25.949L1.719,28.951L4.278,27.384ZM31.723,8.616L33.561,11.618L36.12,10.051L34.281,7.049L31.723,8.616ZM33.561,11.618C34.105,12.506 33.822,13.684 32.777,14.253L34.212,16.887C36.685,15.541 37.607,12.479 36.12,10.051L33.561,11.618ZM28.697,7.881C29.788,7.287 31.145,7.671 31.723,8.616L34.281,7.049C32.829,4.677 29.688,3.925 27.262,5.246L28.697,7.881ZM2.439,24.382C1.896,23.494 2.179,22.316 3.223,21.747L1.789,19.113C-0.684,20.459 -1.606,23.521 -0.119,25.949L2.439,24.382ZM1.719,28.951C3.172,31.323 6.312,32.075 8.738,30.754L7.304,28.119C6.213,28.713 4.856,28.329 4.278,27.384L1.719,28.951ZM28.501,7.987L28.697,7.881L27.262,5.246L27.067,5.352L28.501,7.987ZM7.304,7.881L7.499,7.987L8.934,5.352L8.738,5.246L7.304,7.881ZM28.697,28.119L28.501,28.013L27.067,30.648L27.262,30.754L28.697,28.119ZM7.499,28.013L7.304,28.119L8.738,30.754L8.934,30.648L7.499,28.013ZM1.789,16.887C2.67,17.367 2.67,18.633 1.789,19.113L3.223,21.747C6.192,20.131 6.192,15.869 3.223,14.253L1.789,16.887ZM8.934,30.648C9.859,30.144 10.985,30.814 10.985,31.867L13.985,31.867C13.985,28.538 10.423,26.421 7.499,28.013L8.934,30.648ZM25.015,31.867C25.015,30.814 26.142,30.144 27.067,30.648L28.501,28.013C25.577,26.421 22.015,28.538 22.015,31.867L25.015,31.867ZM34.212,19.113C33.33,18.633 33.33,17.367 34.212,16.887L32.777,14.253C29.808,15.869 29.808,20.131 32.777,21.747L34.212,19.113ZM7.499,7.987C10.423,9.579 13.985,7.462 13.985,4.133L10.985,4.133C10.985,5.186 9.859,5.856 8.934,5.352L7.499,7.987ZM27.067,5.352C26.142,5.856 25.015,5.186 25.015,4.133L22.015,4.133C22.015,7.462 25.577,9.579 28.501,7.987L27.067,5.352Z" fill="#797C7B" fill-opacity="0.39"/>
</svg>
