<svg width="40" height="44" viewBox="0 0 40 44" fill="none" xmlns="http://www.w3.org/2000/svg" xmlns:xlink="http://www.w3.org/1999/xlink">
<path d="M10,18L11.5,18L10,18ZM18,10L18,8.5L18,8.5L18,10ZM30,10L30,11.5L30,11.5L30,10ZM38,18L36.5,18L36.5,18L38,18ZM38,26.686L39.5,26.686L39.5,26.686L38,26.686ZM22.686,42L22.686,40.5L22.686,40.5L22.686,42ZM18,42L18,43.5L18,43.5L18,42ZM35.657,32.343L34.596,31.282L34.596,31.282L35.657,32.343ZM28.343,39.657L27.282,38.596L27.282,38.596L28.343,39.657ZM2,26L0.5,26L2,26ZM2,10L0.5,10L2,10ZM22,2L22,0.5L22,2ZM26,38L24.5,38L24.5,38L26,38ZM34,30L34,31.5L34,31.5L34,30ZM11.5,34L11.5,18L8.5,18L8.5,34L11.5,34ZM18,11.5L30,11.5L30,8.5L18,8.5L18,11.5ZM36.5,18L36.5,26.686L39.5,26.686L39.5,18L36.5,18ZM22.686,40.5L18,40.5L18,43.5L22.686,43.5L22.686,40.5ZM34.596,31.282L27.282,38.596L29.404,40.718L36.718,33.404L34.596,31.282ZM22.686,43.5C25.206,43.5 27.622,42.499 29.404,40.718L27.282,38.596C26.063,39.815 24.41,40.5 22.686,40.5L22.686,43.5ZM36.5,26.686C36.5,28.41 35.815,30.063 34.596,31.282L36.718,33.404C38.499,31.622 39.5,29.206 39.5,26.686L36.5,26.686ZM11.5,18C11.5,14.41 14.41,11.5 18,11.5L18,8.5C12.753,8.5 8.5,12.753 8.5,18L11.5,18ZM8.5,34C8.5,39.247 12.753,43.5 18,43.5L18,40.5C14.41,40.5 11.5,37.59 11.5,34L8.5,34ZM30,11.5C33.59,11.5 36.5,14.41 36.5,18L39.5,18C39.5,12.753 35.247,8.5 30,8.5L30,11.5ZM3.5,26L3.5,10L0.5,10L0.5,26L3.5,26ZM10,3.5L22,3.5L22,0.5L10,0.5L10,3.5ZM3.5,10C3.5,6.41 6.41,3.5 10,3.5L10,0.5C4.753,0.5 0.5,4.753 0.5,10L3.5,10ZM0.5,26C0.5,31.247 4.753,35.5 10,35.5L10,32.5C6.41,32.5 3.5,29.59 3.5,26L0.5,26ZM22,3.5C25.59,3.5 28.5,6.41 28.5,10L31.5,10C31.5,4.753 27.247,0.5 22,0.5L22,3.5ZM27.5,42L27.5,38L24.5,38L24.5,42L27.5,42ZM34,31.5L38,31.5L38,28.5L34,28.5L34,31.5ZM27.5,38C27.5,34.41 30.41,31.5 34,31.5L34,28.5C28.753,28.5 24.5,32.753 24.5,38L27.5,38Z" fill="#989E9C"/>
</svg>
