<svg width="36" height="40" viewBox="0 0 36 40" fill="none" xmlns="http://www.w3.org/2000/svg" xmlns:xlink="http://www.w3.org/1999/xlink">
<path d="M32.329,14.616C32.392,13.79 31.774,13.069 30.948,13.006C30.122,12.942 29.401,13.56 29.338,14.386L32.329,14.616ZM29.521,31.564L31.016,31.679L31.016,31.679L29.521,31.564ZM6.479,31.564L4.984,31.679L4.984,31.679L6.479,31.564ZM6.662,14.386C6.599,13.56 5.878,12.942 5.052,13.006C4.226,13.069 3.608,13.79 3.671,14.616L6.662,14.386ZM33.843,12.183C34.588,12.546 35.486,12.236 35.848,11.492C36.211,10.747 35.902,9.849 35.157,9.486L33.843,12.183ZM0.843,9.486C0.098,9.849 -0.211,10.747 0.152,11.492C0.515,12.236 1.412,12.546 2.157,12.183L0.843,9.486ZM12.833,7.168C12.833,7.996 13.505,8.668 14.333,8.668C15.162,8.668 15.833,7.996 15.833,7.168L12.833,7.168ZM20.167,7.168C20.167,7.996 20.838,8.668 21.667,8.668C22.495,8.668 23.167,7.996 23.167,7.168L20.167,7.168ZM15.833,18.168C15.833,17.34 15.162,16.668 14.333,16.668C13.505,16.668 12.833,17.34 12.833,18.168L15.833,18.168ZM12.833,29.168C12.833,29.996 13.505,30.668 14.333,30.668C15.162,30.668 15.833,29.996 15.833,29.168L12.833,29.168ZM23.167,18.168C23.167,17.34 22.495,16.668 21.667,16.668C20.838,16.668 20.167,17.34 20.167,18.168L23.167,18.168ZM20.167,29.168C20.167,29.996 20.838,30.668 21.667,30.668C22.495,30.668 23.167,29.996 23.167,29.168L20.167,29.168ZM29.338,14.386L28.025,31.449L31.016,31.679L32.329,14.616L29.338,14.386ZM22.209,36.835L13.791,36.835L13.791,39.835L22.209,39.835L22.209,36.835ZM7.975,31.449L6.662,14.386L3.671,14.616L4.984,31.679L7.975,31.449ZM13.791,36.835C10.743,36.835 8.209,34.488 7.975,31.449L4.984,31.679C5.338,36.281 9.175,39.835 13.791,39.835L13.791,36.835ZM28.025,31.449C27.791,34.488 25.257,36.835 22.209,36.835L22.209,39.835C26.825,39.835 30.662,36.281 31.016,31.679L28.025,31.449ZM18,8.668C23.856,8.668 29.293,9.966 33.843,12.183L35.157,9.486C30.182,7.062 24.294,5.668 18,5.668L18,8.668ZM2.157,12.183C6.707,9.966 12.144,8.668 18,8.668L18,5.668C11.706,5.668 5.818,7.062 0.843,9.486L2.157,12.183ZM15.833,7.168L15.833,5.335L12.833,5.335L12.833,7.168L15.833,7.168ZM20.167,5.335L20.167,7.168L23.167,7.168L23.167,5.335L20.167,5.335ZM18,3.168C19.197,3.168 20.167,4.138 20.167,5.335L23.167,5.335C23.167,2.481 20.853,0.168 18,0.168L18,3.168ZM15.833,5.335C15.833,4.138 16.803,3.168 18,3.168L18,0.168C15.147,0.168 12.833,2.481 12.833,5.335L15.833,5.335ZM12.833,18.168L12.833,29.168L15.833,29.168L15.833,18.168L12.833,18.168ZM20.167,18.168L20.167,29.168L23.167,29.168L23.167,18.168L20.167,18.168Z" fill="#FFFFFF"/>
</svg>
