<svg width="34" height="40" viewBox="0 0 34 40" fill="none" xmlns="http://www.w3.org/2000/svg" xmlns:xlink="http://www.w3.org/1999/xlink">
<path d="M27.439,14.456L25.949,14.625L25.949,14.625L27.439,14.456ZM28.259,21.679L29.749,21.51L29.749,21.51L28.259,21.679ZM3.741,21.679L2.251,21.51L2.251,21.51L3.741,21.679ZM4.561,14.456L6.051,14.625L4.561,14.456ZM2.154,25.267L1.012,24.295L1.012,24.295L2.154,25.267ZM29.846,25.267L28.704,26.239L28.704,26.239L29.846,25.267ZM20.162,6.02L18.662,6.02C18.662,6.661 19.069,7.231 19.676,7.439L20.162,6.02ZM11.839,6.02L12.324,7.439C12.931,7.231 13.339,6.661 13.339,6.02L11.839,6.02ZM22.905,35.194C23.195,34.419 22.802,33.554 22.026,33.263C21.251,32.973 20.386,33.366 20.096,34.142L22.905,35.194ZM11.905,34.142C11.614,33.366 10.749,32.973 9.974,33.263C9.198,33.554 8.805,34.419 9.096,35.194L11.905,34.142ZM26.592,29.501L5.409,29.501L5.409,32.501L26.592,32.501L26.592,29.501ZM25.949,14.625L26.769,21.848L29.749,21.51L28.93,14.287L25.949,14.625ZM5.232,21.848L6.051,14.625L3.071,14.287L2.251,21.51L5.232,21.848ZM3.297,26.239C4.37,24.978 5.049,23.461 5.232,21.848L2.251,21.51C2.138,22.5 1.719,23.464 1.012,24.295L3.297,26.239ZM26.769,21.848C26.952,23.461 27.63,24.978 28.704,26.239L30.988,24.295C30.281,23.464 29.862,22.5 29.749,21.51L26.769,21.848ZM5.409,29.501C4.251,29.501 3.444,28.93 3.075,28.28C2.721,27.656 2.725,26.911 3.297,26.239L1.012,24.295C-0.427,25.985 -0.472,28.108 0.466,29.76C1.389,31.387 3.214,32.501 5.409,32.501L5.409,29.501ZM26.592,32.501C28.786,32.501 30.612,31.387 31.534,29.76C32.472,28.108 32.427,25.985 30.988,24.295L28.704,26.239C29.276,26.911 29.28,27.656 28.925,28.28C28.556,28.93 27.749,29.501 26.592,29.501L26.592,32.501ZM21.662,6.02L21.662,5.83L18.662,5.83L18.662,6.02L21.662,6.02ZM28.93,14.287C28.411,9.72 25.026,6.1 20.648,4.601L19.676,7.439C23.153,8.629 25.583,11.402 25.949,14.625L28.93,14.287ZM13.339,6.02L13.339,5.83L10.339,5.83L10.339,6.02L13.339,6.02ZM6.051,14.625C6.417,11.402 8.847,8.629 12.324,7.439L11.353,4.601C6.974,6.1 3.589,9.72 3.071,14.287L6.051,14.625ZM16,3.168C17.47,3.168 18.662,4.36 18.662,5.83L21.662,5.83C21.662,2.703 19.127,0.168 16,0.168L16,3.168ZM16,0.168C12.873,0.168 10.339,2.703 10.339,5.83L13.339,5.83C13.339,4.36 14.53,3.168 16,3.168L16,0.168ZM20.096,34.142C19.523,35.67 17.938,36.835 16,36.835L16,39.835C19.14,39.835 21.876,37.939 22.905,35.194L20.096,34.142ZM16,36.835C14.062,36.835 12.477,35.67 11.905,34.142L9.096,35.194C10.124,37.939 12.86,39.835 16,39.835L16,36.835Z" fill="#FFFFFF"/>
</svg>
