<svg width="40" height="40" viewBox="0 0 40 40" fill="none" xmlns="http://www.w3.org/2000/svg" xmlns:xlink="http://www.w3.org/1999/xlink">
<path d="M32.977,30.856C32.392,30.27 31.442,30.27 30.856,30.856C30.27,31.442 30.27,32.391 30.856,32.977L32.977,30.856ZM37.273,39.394C37.859,39.98 38.808,39.98 39.394,39.394C39.98,38.808 39.98,37.858 39.394,37.273L37.273,39.394ZM38,19.083C38,8.636 29.531,0.167 19.083,0.167L19.083,3.167C27.874,3.167 35,10.293 35,19.083L38,19.083ZM19.083,0.167C8.636,0.167 0.167,8.636 0.167,19.083L3.167,19.083C3.167,10.293 10.293,3.167 19.083,3.167L19.083,0.167ZM0.167,19.083C0.167,29.531 8.636,38 19.083,38L19.083,35C10.293,35 3.167,27.874 3.167,19.083L0.167,19.083ZM19.083,38C29.531,38 38,29.531 38,19.083L35,19.083C35,27.874 27.874,35 19.083,35L19.083,38ZM30.856,32.977L37.273,39.394L39.394,37.273L32.977,30.856L30.856,32.977Z" fill="#FFFFFF"/>
</svg>
