<svg width="32" height="44" viewBox="0 0 32 44" fill="none" xmlns="http://www.w3.org/2000/svg" xmlns:xlink="http://www.w3.org/1999/xlink">
<path d="M31.5,20C31.5,19.172 30.828,18.5 30,18.5C29.172,18.5 28.5,19.172 28.5,20L31.5,20ZM3.5,20C3.5,19.172 2.828,18.5 2,18.5C1.172,18.5 0.5,19.172 0.5,20L3.5,20ZM22,43.5C22.828,43.5 23.5,42.828 23.5,42C23.5,41.172 22.828,40.5 22,40.5L22,43.5ZM10,40.5C9.172,40.5 8.5,41.172 8.5,42C8.5,42.828 9.172,43.5 10,43.5L10,40.5ZM22.5,10L22.5,22L25.5,22L25.5,10L22.5,10ZM9.5,22L9.5,10L6.5,10L6.5,22L9.5,22ZM16,28.5C12.41,28.5 9.5,25.59 9.5,22L6.5,22C6.5,27.247 10.753,31.5 16,31.5L16,28.5ZM22.5,22C22.5,25.59 19.59,28.5 16,28.5L16,31.5C21.247,31.5 25.5,27.247 25.5,22L22.5,22ZM16,3.5C19.59,3.5 22.5,6.41 22.5,10L25.5,10C25.5,4.753 21.247,0.5 16,0.5L16,3.5ZM16,0.5C10.753,0.5 6.5,4.753 6.5,10L9.5,10C9.5,6.41 12.41,3.5 16,3.5L16,0.5ZM28.5,20L28.5,22L31.5,22L31.5,20L28.5,20ZM3.5,22L3.5,20L0.5,20L0.5,22L3.5,22ZM16,34.5C9.096,34.5 3.5,28.904 3.5,22L0.5,22C0.5,30.56 7.44,37.5 16,37.5L16,34.5ZM28.5,22C28.5,28.904 22.904,34.5 16,34.5L16,37.5C24.56,37.5 31.5,30.56 31.5,22L28.5,22ZM14.5,36L14.5,42L17.5,42L17.5,36L14.5,36ZM16,43.5L22,43.5L22,40.5L16,40.5L16,43.5ZM16,40.5L10,40.5L10,43.5L16,43.5L16,40.5Z" fill="#000E08"/>
</svg>
