<svg width="44" height="44" viewBox="0 0 44 44" fill="none" xmlns="http://www.w3.org/2000/svg" xmlns:xlink="http://www.w3.org/1999/xlink">
<path d="M36.061,33.939C35.475,33.354 34.525,33.354 33.939,33.939C33.354,34.525 33.354,35.475 33.939,36.061L36.061,33.939ZM40.939,43.061C41.525,43.646 42.475,43.646 43.061,43.061C43.646,42.475 43.646,41.525 43.061,40.939L40.939,43.061ZM41.5,21C41.5,9.678 32.322,0.5 21,0.5L21,3.5C30.665,3.5 38.5,11.335 38.5,21L41.5,21ZM21,0.5C9.678,0.5 0.5,9.678 0.5,21L3.5,21C3.5,11.335 11.335,3.5 21,3.5L21,0.5ZM0.5,21C0.5,32.322 9.678,41.5 21,41.5L21,38.5C11.335,38.5 3.5,30.665 3.5,21L0.5,21ZM21,41.5C32.322,41.5 41.5,32.322 41.5,21L38.5,21C38.5,30.665 30.665,38.5 21,38.5L21,41.5ZM33.939,36.061L40.939,43.061L43.061,40.939L36.061,33.939L33.939,36.061Z" fill="#000E08"/>
</svg>
