<svg width="44" height="44" viewBox="0 0 44 44" fill="none" xmlns="http://www.w3.org/2000/svg" xmlns:xlink="http://www.w3.org/1999/xlink">
<path d="M41.124,27.217C41.796,27.701 42.733,27.549 43.217,26.876C43.701,26.204 43.549,25.267 42.876,24.783L41.124,27.217ZM36.122,21.768L35.246,22.985L35.246,22.985L36.122,21.768ZM26.096,22.314L27.099,23.429L27.099,23.429L26.096,22.314ZM17.904,29.686L18.908,30.801L18.908,30.801L17.904,29.686ZM7.878,30.232L8.754,29.015L8.754,29.015L7.878,30.232ZM2.876,24.783C2.204,24.299 1.267,24.451 0.783,25.124C0.299,25.796 0.451,26.733 1.124,27.217L2.876,24.783ZM10,3.5L34,3.5L34,0.5L10,0.5L10,3.5ZM40.5,10L40.5,34L43.5,34L43.5,10L40.5,10ZM34,40.5L10,40.5L10,43.5L34,43.5L34,40.5ZM3.5,34L3.5,10L0.5,10L0.5,34L3.5,34ZM10,40.5C6.41,40.5 3.5,37.59 3.5,34L0.5,34C0.5,39.247 4.753,43.5 10,43.5L10,40.5ZM40.5,34C40.5,37.59 37.59,40.5 34,40.5L34,43.5C39.247,43.5 43.5,39.247 43.5,34L40.5,34ZM34,3.5C37.59,3.5 40.5,6.41 40.5,10L43.5,10C43.5,4.753 39.247,0.5 34,0.5L34,3.5ZM10,0.5C4.753,0.5 0.5,4.753 0.5,10L3.5,10C3.5,6.41 6.41,3.5 10,3.5L10,0.5ZM42.876,24.783L36.998,20.551L35.246,22.985L41.124,27.217L42.876,24.783ZM25.092,21.199L16.901,28.571L18.908,30.801L27.099,23.429L25.092,21.199ZM8.754,29.015L2.876,24.783L1.124,27.217L7.002,31.449L8.754,29.015ZM16.901,28.571C14.628,30.617 11.236,30.802 8.754,29.015L7.002,31.449C10.629,34.061 15.586,33.791 18.908,30.801L16.901,28.571ZM36.998,20.551C33.371,17.939 28.414,18.209 25.092,21.199L27.099,23.429C29.372,21.383 32.764,21.198 35.246,22.985L36.998,20.551ZM18.5,15C18.5,16.933 16.933,18.5 15,18.5L15,21.5C18.59,21.5 21.5,18.59 21.5,15L18.5,15ZM15,18.5C13.067,18.5 11.5,16.933 11.5,15L8.5,15C8.5,18.59 11.41,21.5 15,21.5L15,18.5ZM11.5,15C11.5,13.067 13.067,11.5 15,11.5L15,8.5C11.41,8.5 8.5,11.41 8.5,15L11.5,15ZM15,11.5C16.933,11.5 18.5,13.067 18.5,15L21.5,15C21.5,11.41 18.59,8.5 15,8.5L15,11.5Z" fill="#797C7B" fill-opacity="0.5"/>
</svg>
