<svg width="44" height="42" viewBox="0 0 44 42" fill="none" xmlns="http://www.w3.org/2000/svg" xmlns:xlink="http://www.w3.org/1999/xlink">
<path d="M28.5,28.667L28.206,30.138C28.869,30.27 29.539,29.943 29.842,29.337L28.5,28.667ZM13.333,13.5L12.663,12.158C12.057,12.461 11.73,13.131 11.862,13.794L13.333,13.5ZM14.1,13.116L14.771,14.458L14.771,14.458L14.1,13.116ZM16.186,7.631L17.579,7.074L17.579,7.074L16.186,7.631ZM14.423,3.224L13.03,3.781L13.03,3.781L14.423,3.224ZM38.776,27.577L38.219,28.97L38.219,28.97L38.776,27.577ZM34.369,25.814L34.926,24.421L34.926,24.421L34.369,25.814ZM28.884,27.9L30.225,28.57L30.225,28.57L28.884,27.9ZM31.333,17.833C31.333,18.662 32.005,19.333 32.833,19.333C33.662,19.333 34.333,18.662 34.333,17.833L31.333,17.833ZM32.174,14.517L33.559,13.943L33.559,13.943L32.174,14.517ZM27.483,9.826L28.057,8.441L28.057,8.441L27.483,9.826ZM24.167,7.667C23.338,7.667 22.667,8.338 22.667,9.167C22.667,9.995 23.338,10.667 24.167,10.667L24.167,7.667ZM40,17.833C40,18.662 40.672,19.333 41.5,19.333C42.328,19.333 43,18.662 43,17.833L40,17.833ZM40.181,11.2L41.566,10.626L41.566,10.626L40.181,11.2ZM30.8,1.819L31.374,0.434L31.374,0.434L30.8,1.819ZM24.167,-1C23.338,-1 22.667,-0.328 22.667,0.5C22.667,1.328 23.338,2 24.167,2L24.167,-1ZM40,31.6L40,35.167L43,35.167L43,31.6L40,31.6ZM6.833,2L10.4,2L10.4,-1L6.833,-1L6.833,2ZM28.5,28.667C28.794,27.196 28.795,27.196 28.795,27.196C28.795,27.196 28.795,27.196 28.796,27.196C28.796,27.196 28.796,27.196 28.797,27.196C28.797,27.196 28.797,27.196 28.797,27.196C28.797,27.196 28.796,27.196 28.793,27.196C28.787,27.194 28.777,27.192 28.761,27.189C28.731,27.182 28.681,27.171 28.613,27.154C28.478,27.121 28.273,27.068 28.009,26.991C27.482,26.836 26.726,26.584 25.841,26.205C24.063,25.443 21.805,24.183 19.811,22.189L17.689,24.311C20.029,26.65 22.645,28.099 24.659,28.962C25.67,29.395 26.539,29.685 27.163,29.869C27.475,29.961 27.726,30.026 27.904,30.069C27.993,30.091 28.064,30.107 28.115,30.118C28.14,30.124 28.161,30.128 28.176,30.131C28.183,30.133 28.19,30.134 28.195,30.135C28.197,30.136 28.199,30.136 28.201,30.137C28.202,30.137 28.203,30.137 28.204,30.137C28.204,30.137 28.205,30.137 28.205,30.137C28.205,30.137 28.206,30.138 28.5,28.667ZM19.811,22.189C17.817,20.196 16.557,17.937 15.795,16.159C15.416,15.274 15.164,14.518 15.009,13.991C14.932,13.727 14.879,13.522 14.846,13.387C14.829,13.319 14.818,13.269 14.811,13.239C14.808,13.223 14.806,13.213 14.805,13.207C14.804,13.204 14.804,13.203 14.804,13.203C14.804,13.203 14.804,13.203 14.804,13.203C14.804,13.204 14.804,13.204 14.804,13.204C14.804,13.205 14.804,13.205 14.804,13.205C14.804,13.205 14.804,13.206 13.333,13.5C11.862,13.794 11.863,13.795 11.863,13.795C11.863,13.795 11.863,13.796 11.863,13.796C11.863,13.797 11.863,13.798 11.863,13.799C11.864,13.801 11.864,13.803 11.865,13.805C11.866,13.81 11.867,13.817 11.869,13.824C11.872,13.839 11.876,13.86 11.882,13.885C11.893,13.936 11.909,14.007 11.931,14.096C11.974,14.274 12.039,14.525 12.131,14.837C12.315,15.461 12.605,16.33 13.038,17.341C13.901,19.355 15.35,21.971 17.689,24.311L19.811,22.189ZM14.004,14.842L14.771,14.458L13.43,11.775L12.663,12.158L14.004,14.842ZM17.579,7.074L15.816,2.667L13.03,3.781L14.793,8.188L17.579,7.074ZM39.333,26.184L34.926,24.421L33.812,27.207L38.219,28.97L39.333,26.184ZM27.542,27.229L27.158,27.996L29.842,29.337L30.225,28.57L27.542,27.229ZM34.926,24.421C32.109,23.295 28.899,24.515 27.542,27.229L30.225,28.57C30.884,27.252 32.443,26.66 33.812,27.207L34.926,24.421ZM14.771,14.458C17.485,13.101 18.705,9.891 17.579,7.074L14.793,8.188C15.34,9.557 14.748,11.116 13.43,11.775L14.771,14.458ZM10.4,2C11.558,2 12.6,2.705 13.03,3.781L15.816,2.667C14.93,0.452 12.785,-1 10.4,-1L10.4,2ZM43,31.6C43,29.215 41.548,27.07 39.333,26.184L38.219,28.97C39.295,29.4 40,30.442 40,31.6L43,31.6ZM37.167,38C18.849,38 4,23.151 4,4.833L1,4.833C1,24.808 17.192,41 37.167,41L37.167,38ZM37.167,41C40.388,41 43,38.388 43,35.167L40,35.167C40,36.731 38.731,38 37.167,38L37.167,41ZM4,4.833C4,3.269 5.269,2 6.833,2L6.833,-1C3.612,-1 1,1.612 1,4.833L4,4.833ZM34.333,17.833C34.333,16.498 34.07,15.176 33.559,13.943L30.788,15.091C31.148,15.96 31.333,16.892 31.333,17.833L34.333,17.833ZM33.559,13.943C33.049,12.709 32.3,11.588 31.356,10.644L29.234,12.766C29.9,13.431 30.428,14.221 30.788,15.091L33.559,13.943ZM31.356,10.644C30.412,9.7 29.291,8.951 28.057,8.441L26.909,11.212C27.779,11.572 28.569,12.1 29.234,12.766L31.356,10.644ZM28.057,8.441C26.824,7.93 25.502,7.667 24.167,7.667L24.167,10.667C25.108,10.667 26.04,10.852 26.909,11.212L28.057,8.441ZM43,17.833C43,15.36 42.513,12.911 41.566,10.626L38.795,11.774C39.59,13.695 40,15.754 40,17.833L43,17.833ZM41.566,10.626C40.62,8.341 39.233,6.265 37.484,4.516L35.363,6.637C36.833,8.108 37.999,9.853 38.795,11.774L41.566,10.626ZM37.484,4.516C35.735,2.767 33.659,1.38 31.374,0.434L30.226,3.205C32.147,4.001 33.892,5.167 35.363,6.637L37.484,4.516ZM31.374,0.434C29.089,-0.513 26.64,-1 24.167,-1L24.167,2C26.246,2 28.305,2.41 30.226,3.205L31.374,0.434Z" fill="#797C7B" fill-opacity="0.39"/>
</svg>
