<svg width="24" height="24" viewBox="0 0 24 24" fill="none" xmlns="http://www.w3.org/2000/svg" xmlns:xlink="http://www.w3.org/1999/xlink">
<path d="M23.061,3.061C23.646,2.475 23.646,1.525 23.061,0.939C22.475,0.354 21.525,0.354 20.939,0.939L23.061,3.061ZM0.939,20.939C0.354,21.525 0.354,22.475 0.939,23.061C1.525,23.646 2.475,23.646 3.061,23.061L0.939,20.939ZM20.939,23.061C21.525,23.646 22.475,23.646 23.061,23.061C23.646,22.475 23.646,21.525 23.061,20.939L20.939,23.061ZM3.061,0.939C2.475,0.354 1.525,0.354 0.939,0.939C0.354,1.525 0.354,2.475 0.939,3.061L3.061,0.939ZM20.939,0.939L0.939,20.939L3.061,23.061L23.061,3.061L20.939,0.939ZM23.061,20.939L3.061,0.939L0.939,3.061L20.939,23.061L23.061,20.939Z" fill="#FFFFFF"/>
</svg>
