<svg width="36" height="44" viewBox="0 0 36 44" fill="none" xmlns="http://www.w3.org/2000/svg" xmlns:xlink="http://www.w3.org/1999/xlink">
<path d="M30.479,15.95L28.989,16.12L28.989,16.12L30.479,15.95ZM31.373,23.831L32.864,23.661L32.864,23.661L31.373,23.831ZM4.627,23.831L3.136,23.661L3.136,23.661L4.627,23.831ZM5.521,15.95L7.011,16.12L5.521,15.95ZM2.896,27.744L1.753,26.772L1.753,26.772L2.896,27.744ZM33.104,27.744L31.962,28.717L31.962,28.717L33.104,27.744ZM22.54,6.747L21.04,6.747C21.04,7.388 21.447,7.959 22.054,8.166L22.54,6.747ZM13.46,6.747L13.946,8.166C14.553,7.959 14.96,7.388 14.96,6.747L13.46,6.747ZM25.405,38.526C25.695,37.751 25.302,36.886 24.526,36.595C23.751,36.305 22.886,36.698 22.595,37.474L25.405,38.526ZM13.405,37.474C13.114,36.698 12.249,36.305 11.474,36.595C10.698,36.886 10.305,37.751 10.595,38.526L13.405,37.474ZM29.554,32.5L6.446,32.5L6.446,35.5L29.554,35.5L29.554,32.5ZM28.989,16.12L29.883,24L32.864,23.661L31.97,15.781L28.989,16.12ZM6.117,24L7.011,16.12L4.031,15.781L3.136,23.661L6.117,24ZM4.038,28.717C5.192,27.36 5.921,25.73 6.117,24L3.136,23.661C3.01,24.769 2.541,25.846 1.753,26.772L4.038,28.717ZM29.883,24C30.079,25.73 30.808,27.36 31.962,28.717L34.247,26.772C33.459,25.846 32.99,24.769 32.864,23.661L29.883,24ZM6.446,32.5C5.136,32.5 4.209,31.852 3.781,31.098C3.368,30.371 3.374,29.496 4.038,28.717L1.753,26.772C0.223,28.57 0.176,30.823 1.172,32.579C2.154,34.309 4.099,35.5 6.446,35.5L6.446,32.5ZM29.554,35.5C31.901,35.5 33.846,34.309 34.828,32.579C35.824,30.823 35.777,28.57 34.247,26.772L31.962,28.717C32.626,29.496 32.632,30.371 32.219,31.098C31.791,31.852 30.864,32.5 29.554,32.5L29.554,35.5ZM24.04,6.747L24.04,6.54L21.04,6.54L21.04,6.747L24.04,6.747ZM31.97,15.781C31.411,10.861 27.761,6.95 23.026,5.328L22.054,8.166C25.888,9.479 28.583,12.542 28.989,16.12L31.97,15.781ZM14.96,6.747L14.96,6.54L11.96,6.54L11.96,6.747L14.96,6.747ZM7.011,16.12C7.417,12.542 10.112,9.479 13.946,8.166L12.974,5.328C8.239,6.95 4.589,10.861 4.031,15.781L7.011,16.12ZM18,3.5C19.679,3.5 21.04,4.861 21.04,6.54L24.04,6.54C24.04,3.204 21.336,0.5 18,0.5L18,3.5ZM18,0.5C14.664,0.5 11.96,3.204 11.96,6.54L14.96,6.54C14.96,4.861 16.321,3.5 18,3.5L18,0.5ZM22.595,37.474C21.95,39.196 20.169,40.5 18,40.5L18,43.5C21.371,43.5 24.303,41.465 25.405,38.526L22.595,37.474ZM18,40.5C15.831,40.5 14.05,39.196 13.405,37.474L10.595,38.526C11.697,41.465 14.629,43.5 18,43.5L18,40.5Z" fill="#0E1A4B"/>
</svg>
