<svg width="26" height="8" viewBox="0 0 26 8" fill="none" xmlns="http://www.w3.org/2000/svg" xmlns:xlink="http://www.w3.org/1999/xlink">
<path d="M21.855,5.97C22.483,6.511 23.431,6.44 23.971,5.812C24.511,5.184 24.44,4.236 23.812,3.696L21.855,5.97ZM0.189,3.696C-0.439,4.236 -0.51,5.184 0.03,5.812C0.57,6.44 1.517,6.511 2.145,5.97L0.189,3.696ZM12,2C15.508,2 18.866,3.399 21.855,5.97L23.812,3.696C20.382,0.746 16.353,-1 12,-1L12,2ZM2.145,5.97C5.135,3.399 8.492,2 12,2L12,-1C7.648,-1 3.619,0.746 0.189,3.696L2.145,5.97Z" fill="#797C7B" fill-opacity="0.39"/>
</svg>
