<svg width="88" height="324" viewBox="0 0 88 324" fill="none" xmlns="http://www.w3.org/2000/svg" xmlns:xlink="http://www.w3.org/1999/xlink">
<rect  x="0" y="0" width="88" height="324" rx="44" fill="#FFFFFF" fill-opacity="0.2"/>
<path d="M56.751,271.237C56.034,270.822 55.116,271.067 54.702,271.784C54.287,272.501 54.532,273.419 55.249,273.834L56.751,271.237ZM55.249,278.167C54.532,278.581 54.287,279.499 54.702,280.216C55.116,280.933 56.034,281.178 56.751,280.763L55.249,278.167ZM56.298,264.73C55.487,264.565 54.695,265.09 54.53,265.902C54.365,266.713 54.89,267.505 55.702,267.67L56.298,264.73ZM55.702,284.33C54.89,284.495 54.365,285.286 54.53,286.098C54.695,286.91 55.487,287.435 56.298,287.27L55.702,284.33ZM35.066,267.204L35.966,268.404L35.966,268.404L35.066,267.204ZM43.6,260.807L42.7,259.607L42.7,259.607L43.6,260.807ZM43.6,291.193L44.5,289.993L44.5,289.993L43.6,291.193ZM35.066,284.796L35.966,283.596L35.966,283.596L35.066,284.796ZM55.249,273.834C56,274.268 56.5,275.077 56.5,276L59.5,276C59.5,273.962 58.391,272.185 56.751,271.237L55.249,273.834ZM56.5,276C56.5,276.924 56,277.732 55.249,278.167L56.751,280.763C58.391,279.815 59.5,278.038 59.5,276L56.5,276ZM55.702,267.67C59.581,268.457 62.5,271.89 62.5,276L65.5,276C65.5,270.435 61.548,265.796 56.298,264.73L55.702,267.67ZM62.5,276C62.5,280.11 59.581,283.542 55.702,284.33L56.298,287.27C61.548,286.204 65.5,281.565 65.5,276L62.5,276ZM35.966,268.404L44.5,262.007L42.7,259.607L34.167,266.004L35.966,268.404ZM48.5,264.005L48.5,287.995L51.5,287.995L51.5,264.005L48.5,264.005ZM44.5,289.993L35.966,283.596L34.167,285.996L42.7,292.393L44.5,289.993ZM48.5,287.995C48.5,290.052 46.149,291.229 44.5,289.993L42.7,292.393C46.325,295.111 51.5,292.526 51.5,287.995L48.5,287.995ZM44.5,262.007C46.149,260.771 48.5,261.948 48.5,264.005L51.5,264.005C51.5,259.474 46.325,256.889 42.7,259.607L44.5,262.007ZM32.667,266.504L28,266.504L28,269.504L32.667,269.504L32.667,266.504ZM22.5,272.002L22.5,279.998L25.5,279.998L25.5,272.002L22.5,272.002ZM28,285.496L32.667,285.496L32.667,282.496L28,282.496L28,285.496ZM22.5,279.998C22.5,283.035 24.963,285.496 28,285.496L28,282.496C26.619,282.496 25.5,281.377 25.5,279.998L22.5,279.998ZM28,266.504C24.963,266.504 22.5,268.965 22.5,272.002L25.5,272.002C25.5,270.623 26.619,269.504 28,269.504L28,266.504ZM35.966,283.596C35.014,282.882 33.857,282.496 32.667,282.496L32.667,285.496C33.208,285.496 33.734,285.672 34.167,285.996L35.966,283.596ZM34.167,266.004C33.734,266.328 33.208,266.504 32.667,266.504L32.667,269.504C33.857,269.504 35.014,269.118 35.966,268.404L34.167,266.004Z" fill="#FFFFFF"/>
<rect  x="40" y="40" width="8" height="192" rx="6" fill="#D2D6E1"/>
<rect  x="38" y="150" width="12" height="82" rx="6" fill="#3D4A7A"/>
<g filter="url(#filter3_3305)">
<circle cx="44" cy="146" r="12" fill="#FFFFFF"/>
</g>
<defs>
<filter id="filter3_3305" x="23" y="125" width="30" height="30" filterUnits="userSpaceOnUse" color-interpolation-filters="sRGB">
<feFlood flood-opacity="0" result="BackgroundImageFix"/>
<feColorMatrix in="SourceAlpha" type="matrix" values="0 0 0 0 0 0 0 0 0 0 0 0 0 0 0 0 0 0 127 0" result="hardAlpha"/>
<feMorphology radius="1" operator="dilate" in="SourceAlpha" result="0dropshadow"/>
<feOffset dx="0" dy="4"/>
<feGaussianBlur stdDeviation="4"/>
<feComposite in2="hardAlpha" operator="out"/>
<feColorMatrix type="matrix" values="0 0 0 0 0.098039 0 0 0 0 0.094118 0 0 0 0 0.12549 0 0 0 0.1 0"/>
<feBlend mode="normal" in2="BackgroundImageFix" result="0dropshadow"/>
<feBlend mode="normal" in="SourceGraphic" in2="0dropshadow" result="shape"/>
</filter>
</defs>
</svg>
